<svg width="144" height="32" viewBox="0 0 144 32" fill="none" xmlns="http://www.w3.org/2000/svg">
<path fill-rule="evenodd" clip-rule="evenodd" d="M8.15294 0H135.847C138.685 0 139.712 0.224 140.749 0.64C141.774 1.04928 142.611 1.68207 143.153 2.456C143.704 3.24 144 4.016 144 6.152V25.848C144 27.984 143.704 28.76 143.153 29.544C142.611 30.3179 141.774 30.9507 140.749 31.36C139.712 31.776 138.685 32 135.858 32H8.14235C5.31529 32 4.28824 31.776 3.25059 31.36C2.22627 30.9507 1.38875 30.3179 0.847059 29.544C0.296471 28.76 0 27.984 0 25.848V6.152C0 4.016 0.296471 3.24 0.847059 2.456C1.38875 1.68207 2.22627 1.04928 3.25059 0.64C4.28824 0.224 5.31529 0 8.14235 0H8.15294Z" fill="#293145"/>
<path d="M45.1535 16.2474C45.1685 14.7433 45.9 13.3598 47.0869 12.5715C46.7151 12.0001 46.2245 11.5301 45.6542 11.1992C45.084 10.8682 44.4499 10.6853 43.8024 10.6652C42.4289 10.5043 41.0927 11.55 40.391 11.55C39.6744 11.55 38.592 10.6813 37.4275 10.7054C36.6741 10.7319 35.9399 10.968 35.2963 11.3909C34.6527 11.8137 34.1216 12.4089 33.7548 13.1185C32.1648 16.0865 33.3517 20.438 34.8745 22.835C35.6359 24.0013 36.5168 25.3124 37.6888 25.2641C38.8234 25.2159 39.2564 24.4839 40.6224 24.4839C41.9885 24.4839 42.3841 25.2641 43.571 25.24C44.7952 25.2159 45.5641 24.0576 46.3031 22.8752C46.848 22.0387 47.2735 21.1137 47.5497 20.1404C46.8397 19.8167 46.2339 19.2749 45.8078 18.5826C45.3817 17.8903 45.1541 17.0781 45.1535 16.2474ZM42.9066 9.0887C43.5741 8.22715 43.9035 7.11909 43.8248 6C42.8021 6.12065 41.8616 6.64348 41.1897 7.47196C40.8591 7.87701 40.6058 8.34837 40.4444 8.85906C40.283 9.36974 40.2166 9.9097 40.2492 10.448C40.7588 10.4535 41.2629 10.334 41.7233 10.0985C42.1838 9.86297 42.5884 9.51766 42.9066 9.0887Z" fill="white"/>
<path d="M60.7925 21.5642H57.2617L56.4107 24.2668H54.9177L58.2619 14.2768H59.8221L63.1663 24.2668H61.6435L60.7925 21.5642ZM57.6274 20.3175H60.4267L59.0458 15.9338H59.0084L57.6274 20.3175ZM70.3922 20.6231C70.3922 22.8833 69.2725 24.3392 67.5705 24.3392C67.141 24.3639 66.7136 24.2578 66.3374 24.033C65.9612 23.8083 65.6512 23.474 65.4431 23.0683H65.4132V26.6718H64.0248V16.9794H65.3684V18.186H65.3908C65.6084 17.7809 65.9241 17.4472 66.3041 17.2205C66.684 16.9938 67.1141 16.8827 67.5481 16.899C69.265 16.899 70.3922 18.3629 70.3922 20.6231ZM68.9665 20.6231C68.9665 19.1512 68.2573 18.1779 67.1749 18.1779C66.1224 18.1779 65.4058 19.1673 65.4058 20.6231C65.4058 22.087 66.1224 23.0764 67.1824 23.0764C68.2573 23.0764 68.9665 22.1112 68.9665 20.6231ZM77.8272 20.6231C77.8272 22.8833 76.7074 24.3392 75.0129 24.3392C74.5834 24.3639 74.156 24.2578 73.7798 24.033C73.4036 23.8083 73.0936 23.474 72.8855 23.0683H72.8481V26.6718H71.4672V16.9794H72.8108V18.186H72.8332C73.0502 17.7821 73.3647 17.4492 73.7432 17.2226C74.1218 16.996 74.5502 16.8842 74.9831 16.899C76.7 16.899 77.8272 18.3629 77.8272 20.6231ZM76.4089 20.6231C76.4089 19.1512 75.6997 18.1779 74.6173 18.1779C73.5573 18.1779 72.8481 19.1673 72.8481 20.6231C72.8481 22.087 73.5573 23.0764 74.6173 23.0764C75.6997 23.0764 76.4089 22.1112 76.4089 20.6231ZM82.7465 21.4838C82.851 22.4731 83.7393 23.1246 84.9635 23.1246C86.1355 23.1246 86.979 22.4731 86.979 21.5803C86.979 20.8001 86.4639 20.3416 85.2621 20.0199L84.0677 19.7062C82.3583 19.2638 81.5745 18.4112 81.5745 17.0196C81.5745 15.2903 82.9629 14.1079 84.9411 14.1079C86.9043 14.1079 88.248 15.2903 88.2928 17.0196H86.8894C86.8073 16.0223 86.0384 15.411 84.9262 15.411C83.8065 15.411 83.045 16.0223 83.045 16.9151C83.045 17.6149 83.5303 18.0412 84.7246 18.3549L85.7473 18.6203C87.6508 19.1029 88.4346 19.9314 88.4346 21.3873C88.4346 23.2614 87.0536 24.4277 84.859 24.4277C82.8062 24.4277 81.4177 23.2855 81.3281 21.4838H82.7465ZM91.4355 15.2581V16.9794H92.7194V18.1618H91.4355V22.1836C91.4355 22.8029 91.6893 23.0925 92.2566 23.0925C92.4059 23.0925 92.5552 23.0764 92.7045 23.0603V24.2346C92.4582 24.291 92.1969 24.3151 91.9431 24.307C90.5696 24.307 90.0396 23.744 90.0396 22.3364V18.1618H89.0542V16.9794H90.0396V15.2581H91.4355ZM93.4584 20.6231C93.4584 18.3307 94.7125 16.891 96.6683 16.891C98.6241 16.891 99.8782 18.3388 99.8782 20.6231C99.8782 22.9236 98.6315 24.3553 96.6683 24.3553C94.7051 24.3553 93.4584 22.9236 93.4584 20.6231ZM98.4598 20.6231C98.4598 19.0546 97.788 18.1296 96.6683 18.1296C95.5486 18.1296 94.8767 19.0546 94.8767 20.6231C94.8767 22.1996 95.5486 23.1166 96.6683 23.1166C97.788 23.1166 98.4598 22.1996 98.4598 20.6231ZM101.02 16.9794H102.342V18.2181H102.371C102.558 17.4218 103.237 16.8749 103.999 16.907C104.155 16.907 104.32 16.9231 104.476 16.9633V18.3629C104.274 18.294 104.062 18.2613 103.849 18.2664C103.647 18.2567 103.445 18.2945 103.258 18.3773C103.07 18.4601 102.902 18.5858 102.764 18.7457C102.626 18.9057 102.523 19.096 102.46 19.3035C102.397 19.5111 102.377 19.7308 102.401 19.9475V24.2668H101.02V16.9794ZM110.866 22.1273C110.68 23.4464 109.485 24.3553 107.955 24.3553C105.992 24.3553 104.775 22.9316 104.775 20.6553C104.775 18.371 105.999 16.891 107.903 16.891C109.769 16.891 110.948 18.2744 110.948 20.4864V20.9931H106.171V21.0896C106.15 21.3576 106.181 21.6274 106.264 21.8812C106.347 22.1349 106.479 22.3668 106.651 22.5615C106.823 22.7562 107.032 22.9093 107.263 23.0105C107.494 23.1117 107.743 23.1589 107.992 23.1488C108.664 23.2131 109.299 22.8029 109.553 22.1273H110.866ZM106.178 19.9555H109.56C109.572 19.7145 109.538 19.4734 109.46 19.2472C109.382 19.0209 109.262 18.8146 109.106 18.6409C108.95 18.4672 108.763 18.33 108.556 18.2379C108.349 18.1458 108.127 18.1007 107.903 18.1055C107.447 18.1055 107.011 18.3004 106.689 18.6474C106.367 18.9943 106.186 19.4649 106.186 19.9555H106.178Z" fill="white"/>
<path d="M57.4557 6.75572C57.7464 6.73413 58.0379 6.78229 58.3093 6.89673C58.5807 7.01117 58.8252 7.18904 59.0251 7.41752C59.225 7.64601 59.3754 7.91942 59.4654 8.21807C59.5555 8.51672 59.5829 8.83318 59.5458 9.14463C59.5458 10.6729 58.7769 11.5577 57.4557 11.5577H55.8433V6.75572H57.4557ZM56.5375 10.874H57.3735C57.5809 10.8869 57.7884 10.8501 57.9809 10.7661C58.1735 10.6821 58.3464 10.5532 58.487 10.3885C58.6277 10.2238 58.7327 10.0275 58.7945 9.81383C58.8562 9.60012 58.8732 9.3743 58.8441 9.15268C58.8732 8.93105 58.8562 8.70524 58.7945 8.49153C58.7327 8.27781 58.6277 8.08154 58.487 7.91686C58.3464 7.75219 58.1735 7.62322 57.9809 7.53926C57.7884 7.4553 57.5809 7.41846 57.3735 7.43137H56.5375V10.874ZM60.3296 9.73985C60.3147 9.50553 60.3446 9.27041 60.4176 9.04908C60.4905 8.82776 60.6049 8.62496 60.7537 8.45329C60.9025 8.28162 61.0824 8.14473 61.2823 8.05115C61.4822 7.95756 61.6979 7.90927 61.9159 7.90927C62.1338 7.90927 62.3495 7.95756 62.5494 8.05115C62.7493 8.14473 62.9293 8.28162 63.078 8.45329C63.2268 8.62496 63.3412 8.82776 63.4142 9.04908C63.4871 9.27041 63.5171 9.50553 63.5021 9.73985C63.5171 9.97417 63.4871 10.2093 63.4142 10.4306C63.3412 10.6519 63.2268 10.8547 63.078 11.0264C62.9293 11.1981 62.7493 11.335 62.5494 11.4286C62.3495 11.5221 62.1338 11.5704 61.9159 11.5704C61.6979 11.5704 61.4822 11.5221 61.2823 11.4286C61.0824 11.335 60.9025 11.1981 60.7537 11.0264C60.6049 10.8547 60.4905 10.6519 60.4176 10.4306C60.3446 10.2093 60.3147 9.97417 60.3296 9.73985ZM62.8154 9.73985C62.8154 8.95963 62.4944 8.50116 61.9196 8.50116C61.3373 8.50116 61.0164 8.95963 61.0164 9.73985C61.0164 10.5362 61.3373 10.9866 61.9121 10.9866C62.4944 10.9866 62.8154 10.5281 62.8154 9.73985ZM67.7123 11.5577H67.0255L66.3313 8.88724H66.279L65.5848 11.5577H64.913L63.9799 7.93811H64.6517L65.2489 10.697H65.3011L65.9954 7.93007H66.6299L67.3241 10.697H67.3764L67.9735 7.93007H68.6379L67.7123 11.5577ZM69.4142 7.93811H70.0562V8.5092H70.1085C70.2802 8.0829 70.6833 7.8255 71.1088 7.86572C71.2722 7.8517 71.4365 7.8776 71.5893 7.94149C71.7422 8.00538 71.8797 8.10561 71.9917 8.23472C72.1036 8.36383 72.187 8.51849 72.2358 8.68717C72.2846 8.85586 72.2974 9.03422 72.2733 9.20898V11.5577H71.6014V9.38594C71.6014 8.80681 71.3775 8.51724 70.8848 8.51724C70.7735 8.5107 70.6621 8.53034 70.5585 8.5748C70.4549 8.61926 70.3615 8.68748 70.2848 8.77471C70.2081 8.86195 70.1499 8.96612 70.1143 9.08C70.0787 9.19388 70.0665 9.31474 70.0786 9.4342V11.5577H69.4142V7.93811ZM73.3333 6.52246H73.9902V11.5577H73.3258L73.3333 6.52246ZM74.9158 9.73985C74.9009 9.50553 74.9308 9.27041 75.0038 9.04908C75.0767 8.82776 75.1911 8.62496 75.3399 8.45329C75.4887 8.28162 75.6686 8.14473 75.8685 8.05115C76.0684 7.95756 76.2841 7.90927 76.5021 7.90927C76.72 7.90927 76.9357 7.95756 77.1356 8.05115C77.3355 8.14473 77.5155 8.28162 77.6642 8.45329C77.813 8.62496 77.9274 8.82776 78.0004 9.04908C78.0733 9.27041 78.1033 9.50553 78.0883 9.73985C78.1033 9.97417 78.0733 10.2093 78.0004 10.4306C77.9274 10.6519 77.813 10.8547 77.6642 11.0264C77.5155 11.1981 77.3355 11.335 77.1356 11.4286C76.9357 11.5221 76.72 11.5704 76.5021 11.5704C76.2841 11.5704 76.0684 11.5221 75.8685 11.4286C75.6686 11.335 75.4887 11.1981 75.3399 11.0264C75.1911 10.8547 75.0767 10.6519 75.0038 10.4306C74.9308 10.2093 74.9009 9.97417 74.9158 9.73985ZM77.4016 9.73985C77.4016 8.95963 77.0731 8.50116 76.5058 8.50116C75.9235 8.50116 75.6026 8.95963 75.6026 9.73985C75.6026 10.5362 75.9235 10.9866 76.4983 10.9866C77.0731 10.9866 77.4016 10.5281 77.4016 9.73985ZM78.7826 10.5281C78.7826 9.88463 79.2304 9.50659 80.0366 9.45029L80.9473 9.39398V9.08029C80.9473 8.70224 80.7085 8.48507 80.2531 8.48507C79.8799 8.48507 79.6261 8.62985 79.5589 8.88724H78.9095C78.9841 8.25985 79.5216 7.86572 80.283 7.86572C81.1265 7.86572 81.6042 8.31616 81.6042 9.08029V11.5577H80.9623V11.0429H80.91C80.6935 11.4209 80.3128 11.6381 79.9023 11.614C79.7611 11.6297 79.6184 11.6134 79.4834 11.566C79.3484 11.5187 79.2241 11.4413 79.1186 11.339C79.0131 11.2367 78.9287 11.1116 78.8708 10.9719C78.8129 10.8323 78.7828 10.6811 78.7826 10.5281ZM80.9473 10.2225V9.91681L80.1262 9.97311C79.6634 10.0053 79.4544 10.1822 79.4544 10.4959C79.4544 10.8177 79.7157 11.0107 80.074 11.0107C80.1797 11.0229 80.2866 11.012 80.3884 10.9786C80.4901 10.9452 80.5846 10.8901 80.6661 10.8166C80.7476 10.743 80.8145 10.6524 80.8629 10.5504C80.9112 10.4483 80.9399 10.3368 80.9473 10.2225ZM82.4776 9.73985C82.4776 8.59768 83.0226 7.87377 83.8735 7.87377C84.299 7.84964 84.7021 8.09898 84.9037 8.5092H84.9485V6.52246H85.6203V11.5577H84.9783V10.9866H84.9261C84.7096 11.3888 84.3065 11.6301 83.8735 11.614C83.0151 11.614 82.4776 10.8901 82.4776 9.73985ZM83.1644 9.73985C83.1644 10.512 83.5003 10.9705 84.0602 10.9705C84.62 10.9705 84.9634 10.504 84.9634 9.7479C84.9634 8.99181 84.6126 8.51724 84.0602 8.51724C83.5003 8.51724 83.1644 8.98377 83.1644 9.73985ZM88.3599 9.73985C88.345 9.50553 88.3749 9.27041 88.4479 9.04908C88.5208 8.82776 88.6352 8.62496 88.784 8.45329C88.9328 8.28162 89.1127 8.14473 89.3126 8.05115C89.5125 7.95756 89.7282 7.90927 89.9461 7.90927C90.1641 7.90927 90.3798 7.95756 90.5797 8.05115C90.7796 8.14473 90.9595 8.28162 91.1083 8.45329C91.2571 8.62496 91.3715 8.82776 91.4444 9.04908C91.5174 9.27041 91.5473 9.50553 91.5324 9.73985C91.5473 9.97417 91.5174 10.2093 91.4444 10.4306C91.3715 10.6519 91.2571 10.8547 91.1083 11.0264C90.9595 11.1981 90.7796 11.335 90.5797 11.4286C90.3798 11.5221 90.1641 11.5704 89.9461 11.5704C89.7282 11.5704 89.5125 11.5221 89.3126 11.4286C89.1127 11.335 88.9328 11.1981 88.784 11.0264C88.6352 10.8547 88.5208 10.6519 88.4479 10.4306C88.3749 10.2093 88.345 9.97417 88.3599 9.73985ZM90.8457 9.73985C90.8457 8.95963 90.5172 8.50116 89.9499 8.50116C89.3676 8.50116 89.0466 8.95963 89.0466 9.73985C89.0466 10.5362 89.3676 10.9866 89.9424 10.9866C90.5172 10.9866 90.8457 10.5281 90.8457 9.73985ZM92.4207 7.93811H93.0552V8.5092H93.1075C93.2792 8.0829 93.6823 7.8255 94.1152 7.86572C94.2781 7.85298 94.4415 7.87983 94.5934 7.94428C94.7454 8.00873 94.8819 8.10915 94.993 8.2381C95.1041 8.36705 95.1868 8.52125 95.2352 8.68929C95.2835 8.85734 95.2962 9.03494 95.2723 9.20898V11.5577H94.6154V9.38594C94.6154 8.80681 94.3765 8.51724 93.8838 8.51724C93.7731 8.51191 93.6626 8.53244 93.5599 8.57743C93.4572 8.62243 93.3647 8.69082 93.2889 8.77791C93.213 8.86501 93.1555 8.96875 93.1203 9.08203C93.0852 9.19531 93.0731 9.31545 93.0851 9.4342V11.5577H92.4133V7.93811H92.4207ZM99.0271 7.0292V7.9542H99.7511V8.54942H99.0271V10.4155C99.0271 10.7935 99.1689 10.9625 99.4973 10.9625L99.7511 10.9464V11.5416C99.6317 11.5657 99.5123 11.5738 99.3928 11.5738C98.6464 11.5738 98.3627 11.2922 98.3627 10.6005V8.54942H97.8252V7.9542H98.3627V7.0292H99.0271ZM100.654 6.52246H101.319V8.51724H101.371C101.55 8.09094 101.961 7.8255 102.394 7.87377C102.556 7.86401 102.718 7.89289 102.869 7.95835C103.019 8.02381 103.155 8.12425 103.265 8.25251C103.376 8.38078 103.458 8.53371 103.508 8.70042C103.557 8.86713 103.572 9.04352 103.551 9.21703V11.5496H102.886V9.39398C102.886 8.81485 102.633 8.52529 102.17 8.52529C102.055 8.51419 101.94 8.53028 101.832 8.57244C101.724 8.61459 101.626 8.68178 101.545 8.76925C101.464 8.85671 101.402 8.96233 101.363 9.07862C101.323 9.19491 101.308 9.31905 101.319 9.44224V11.5577H100.654V6.52246ZM107.417 10.5764C107.327 10.9066 107.131 11.1922 106.865 11.3832C106.599 11.5743 106.28 11.6588 105.962 11.622C105.741 11.6276 105.521 11.5815 105.319 11.487C105.116 11.3924 104.934 11.2516 104.787 11.0743C104.639 10.897 104.529 10.6873 104.464 10.4597C104.399 10.2321 104.38 9.99202 104.409 9.75594C104.38 9.51872 104.399 9.27759 104.464 9.04883C104.529 8.82007 104.639 8.609 104.786 8.42985C104.933 8.25069 105.114 8.10764 105.317 8.01032C105.52 7.91301 105.74 7.8637 105.962 7.86572C106.895 7.86572 107.455 8.54942 107.455 9.69159V9.9329H105.088V9.98116C105.078 10.1141 105.094 10.248 105.134 10.3741C105.174 10.5003 105.239 10.6159 105.323 10.7136C105.408 10.8113 105.51 10.8889 105.624 10.9415C105.738 10.994 105.86 11.0204 105.984 11.0188C106.305 11.059 106.619 10.882 106.783 10.5764H107.417ZM105.088 9.41007H106.783C106.791 9.28896 106.776 9.16732 106.738 9.05285C106.701 8.93838 106.642 8.83359 106.564 8.74512C106.487 8.65664 106.394 8.58641 106.29 8.53887C106.186 8.49134 106.075 8.46754 105.962 8.46898C105.847 8.4668 105.732 8.48966 105.625 8.53618C105.518 8.5827 105.421 8.65194 105.34 8.73977C105.258 8.82759 105.194 8.93221 105.151 9.04737C105.108 9.16253 105.086 9.28588 105.088 9.41007Z" fill="white"/>
</svg>
