<svg width="144" height="32" viewBox="0 0 144 32" fill="none" xmlns="http://www.w3.org/2000/svg">
<path fill-rule="evenodd" clip-rule="evenodd" d="M8.15294 0H135.847C138.685 0 139.712 0.224 140.749 0.64C141.774 1.04928 142.611 1.68207 143.153 2.456C143.704 3.24 144 4.016 144 6.152V25.848C144 27.984 143.704 28.76 143.153 29.544C142.611 30.3179 141.774 30.9507 140.749 31.36C139.712 31.776 138.685 32 135.858 32H8.14235C5.31529 32 4.28824 31.776 3.25059 31.36C2.22627 30.9507 1.38875 30.3179 0.847059 29.544C0.296471 28.76 0 27.984 0 25.848V6.152C0 4.016 0.296471 3.24 0.847059 2.456C1.38875 1.68207 2.22627 1.04928 3.25059 0.64C4.28824 0.224 5.31529 0 8.14235 0H8.15294Z" fill="#293145"/>
<path fill-rule="evenodd" clip-rule="evenodd" d="M30.5695 24.3152L30.659 24.3393C30.6287 24.3333 30.5988 24.3252 30.5695 24.3152ZM43.3342 15.1456C43.6702 15.3467 43.8792 15.6121 43.9464 15.8856L43.9613 15.9902C43.9314 16.2958 43.7149 16.6015 43.3268 16.8348L31.5324 24.0498C31.2935 24.2026 31.0621 24.2669 30.8606 24.2669C30.6516 24.2669 30.4724 24.1945 30.3231 24.0578L30.2783 24.0095C30.0827 23.7552 29.984 23.4304 30.0021 23.1006V8.87976C30.0021 8.44541 30.1216 8.11563 30.3231 7.91454C30.4724 7.7778 30.6516 7.70541 30.8606 7.70541C31.0621 7.70541 31.2935 7.7778 31.5324 7.92258L43.3268 15.1456H43.3342ZM99.3799 23.9854H100.768V13.9311H99.3799V23.9854ZM111.921 17.5506L110.323 21.9102H110.278L108.621 17.5506H107.121L109.607 23.6476L108.188 27.0339H109.644L113.473 17.5506H111.921ZM104.023 22.8432C103.568 22.8432 102.933 22.6019 102.933 21.9906C102.933 21.2104 103.724 20.9128 104.404 20.9128C105.023 20.9128 105.307 21.0576 105.68 21.2506C105.63 21.6872 105.434 22.0893 105.129 22.3821C104.824 22.675 104.431 22.8388 104.023 22.8432ZM104.195 17.3335C103.179 17.3335 102.142 17.8161 101.709 18.8698L102.941 19.4328C103.209 18.8698 103.702 18.6928 104.21 18.6928C104.934 18.6928 105.665 19.1513 105.68 19.9798V20.0843C105.232 19.8285 104.732 19.6959 104.225 19.6982C102.896 19.6982 101.537 20.4865 101.537 21.9585C101.537 23.3098 102.635 24.1785 103.851 24.1785C104.792 24.1785 105.307 23.72 105.635 23.1891H105.68V23.9693H107.024V20.1085C107.024 18.3308 105.785 17.3335 104.187 17.3335H104.195ZM95.5803 18.7813H93.6021V15.3226H95.5803C96.6254 15.3226 97.2225 16.2556 97.2225 17.0519C97.2225 17.8321 96.6254 18.7732 95.5803 18.7732V18.7813ZM95.5504 13.9311H92.2062V23.9854H93.6021V20.1728H95.543C97.0882 20.1728 98.6035 18.9663 98.6035 17.0519C98.6035 15.1376 97.0882 13.9311 95.543 13.9311H95.5504ZM77.3438 22.8432C76.3883 22.8432 75.5821 21.9745 75.5821 20.7841C75.5821 19.5776 76.3883 18.6928 77.3438 18.6928C78.2993 18.6928 79.0458 19.5776 79.0458 20.7841C79.0458 21.9745 78.2993 22.8432 77.3438 22.8432ZM78.9487 18.1137H78.8965C78.6842 17.8655 78.4253 17.669 78.137 17.5372C77.8486 17.4054 77.5375 17.3415 77.2244 17.3495C76.4026 17.383 75.6254 17.7606 75.058 18.402C74.4906 19.0434 74.1778 19.898 74.1862 20.7841C74.1799 21.6672 74.494 22.518 75.0616 23.1551C75.6292 23.7922 76.4052 24.1652 77.2244 24.1945C77.539 24.2033 77.8515 24.138 78.1403 24.0032C78.4291 23.8685 78.6872 23.6675 78.8965 23.4143H78.9487V23.905C78.9487 25.2161 78.2993 25.9158 77.2542 25.9158C76.9049 25.9086 76.5655 25.7892 76.2795 25.5728C75.9936 25.3564 75.7741 25.0529 75.6493 24.7013L74.44 25.2402C74.6679 25.842 75.0577 26.3566 75.5592 26.7179C76.0607 27.0791 76.651 27.2704 77.2542 27.2671C78.889 27.2671 80.27 26.2215 80.27 23.7039V17.5587H78.9487V18.1217V18.1137ZM81.233 23.9854H82.6289V13.9311H81.233V23.9854ZM84.6817 20.6635C84.6666 20.4147 84.6977 20.1651 84.7732 19.9294C84.8486 19.6938 84.967 19.4767 85.1213 19.2909C85.2757 19.1051 85.4629 18.9544 85.6719 18.8476C85.881 18.7407 86.1077 18.6799 86.3389 18.6687C86.8987 18.6687 87.369 18.9663 87.5183 19.3926L84.6817 20.6715V20.6635ZM89.0113 19.5293C88.75 18.7652 87.9438 17.3576 86.2941 17.3576C84.6593 17.3576 83.3007 18.733 83.3007 20.768C83.3007 22.6904 84.6444 24.1945 86.4509 24.1945C87.9065 24.1945 88.75 23.2293 89.1008 22.6743L88.0185 21.9021C87.8553 22.192 87.6251 22.4312 87.3502 22.5962C87.0754 22.7612 86.7655 22.8463 86.4509 22.8432C85.7417 22.8432 85.2341 22.4974 84.9131 21.8056L89.1606 19.9154L89.0113 19.5293ZM55.1958 18.4032V19.8511H58.4131C58.3667 20.531 58.109 21.1742 57.6816 21.6769C57.3581 22.0321 56.969 22.3101 56.5395 22.493C56.1101 22.6758 55.6497 22.7596 55.1883 22.7387C54.7205 22.7376 54.2575 22.6367 53.8261 22.4416C53.3948 22.2465 53.0036 21.9612 52.6752 21.6021C52.3469 21.2431 52.0878 20.8174 51.9131 20.3498C51.7385 19.8822 51.6516 19.3818 51.6575 18.8778C51.6487 18.1294 51.8445 17.3947 52.2206 16.7654C52.5967 16.1361 53.1364 15.64 53.7724 15.3389C54.4084 15.0379 55.1125 14.9452 55.7971 15.0725C56.4816 15.1997 57.1162 15.5413 57.6218 16.0545L58.5699 15.033C58.125 14.5589 57.5967 14.1851 57.016 13.9338C56.4354 13.6824 55.814 13.5584 55.1883 13.5691C53.8747 13.5689 52.6138 14.1257 51.6779 15.119C50.7421 16.1123 50.2065 17.4625 50.1869 18.8778C50.2065 20.2931 50.7421 21.6433 51.6779 22.6366C52.6138 23.6299 53.8747 24.1867 55.1883 24.1865C56.6589 24.1865 57.7637 23.6717 58.6296 22.6985C59.4144 21.7744 59.8324 20.556 59.7941 19.3041C59.7941 18.9663 59.7717 18.6606 59.7194 18.4032H55.1883H55.1958ZM63.4593 22.8432C62.4963 22.8432 61.6678 21.9906 61.6678 20.768C61.6678 19.5374 62.4963 18.7008 63.4593 18.7008C64.4297 18.7008 65.2509 19.5374 65.2509 20.768C65.2509 21.9906 64.4297 22.8432 63.4593 22.8432ZM63.4593 17.3495C63.0401 17.342 62.6236 17.4251 62.2347 17.594C61.8458 17.7629 61.4923 18.0142 61.1951 18.3329C60.8979 18.6517 60.6631 19.0314 60.5045 19.4497C60.3459 19.8679 60.2668 20.3162 60.2718 20.768C60.2658 21.2205 60.3441 21.6696 60.5023 22.0888C60.6604 22.508 60.8951 22.8887 61.1924 23.2083C61.4897 23.5279 61.8436 23.7799 62.233 23.9493C62.6224 24.1187 63.0394 24.2021 63.4593 24.1945C63.8792 24.2021 64.2962 24.1187 64.6856 23.9493C65.0751 23.7799 65.4289 23.5279 65.7262 23.2083C66.0235 22.8887 66.2582 22.508 66.4163 22.0888C66.5745 21.6696 66.6528 21.2205 66.6468 20.768C66.6518 20.3162 66.5727 19.8679 66.4141 19.4497C66.2555 19.0314 66.0207 18.6517 65.7235 18.3329C65.4263 18.0142 65.0728 17.7629 64.6839 17.594C64.295 17.4251 63.8786 17.342 63.4593 17.3495ZM70.4165 22.8432C69.4461 22.8432 68.6249 21.9906 68.6249 20.768C68.6249 19.5374 69.4461 18.7008 70.4165 18.7008C71.372 18.7008 72.208 19.5374 72.208 20.768C72.208 21.9906 71.372 22.8432 70.4165 22.8432ZM70.4165 17.3495C69.9972 17.342 69.5808 17.4251 69.1919 17.594C68.803 17.7629 68.4495 18.0142 68.1523 18.3329C67.8551 18.6517 67.6203 19.0314 67.4617 19.4497C67.3031 19.8679 67.224 20.3162 67.229 20.768C67.223 21.2205 67.3013 21.6696 67.4595 22.0888C67.6176 22.508 67.8523 22.8887 68.1496 23.2083C68.4469 23.5279 68.8007 23.7799 69.1902 23.9493C69.5796 24.1187 69.9966 24.2021 70.4165 24.1945C70.8364 24.2021 71.2534 24.1187 71.6428 23.9493C72.0322 23.7799 72.3861 23.5279 72.6834 23.2083C72.9807 22.8887 73.2154 22.508 73.3735 22.0888C73.5316 21.6696 73.61 21.2205 73.604 20.768C73.609 20.3162 73.5299 19.8679 73.3713 19.4497C73.2127 19.0314 72.9779 18.6517 72.6807 18.3329C72.3835 18.0142 72.03 17.7629 71.6411 17.594C71.2522 17.4251 70.8357 17.342 70.4165 17.3495Z" fill="white"/>
<path fill-rule="evenodd" clip-rule="evenodd" d="M54.2999 8.51748C54.2999 9.12074 54.1357 9.60335 53.7998 9.96531C53.4266 10.3916 52.9264 10.6088 52.3218 10.6088C51.7395 10.6088 51.2394 10.3916 50.8288 9.95727C50.6315 9.74775 50.4761 9.49694 50.3721 9.22029C50.2681 8.94363 50.2178 8.64698 50.2242 8.34857C50.2242 7.70509 50.4257 7.15813 50.8363 6.72379C51.2394 6.28944 51.7321 6.07227 52.3218 6.07227C52.6054 6.07227 52.8816 6.13661 53.1429 6.25727C53.4116 6.37792 53.6206 6.53879 53.7774 6.73987L53.4191 7.11792C53.2844 6.948 53.1157 6.81334 52.9255 6.72415C52.7354 6.63496 52.5289 6.59357 52.3218 6.60314C51.8963 6.60314 51.5305 6.76401 51.217 7.08574C50.9109 7.40748 50.7542 7.82574 50.7542 8.34053C50.7542 8.85531 50.9035 9.27357 51.217 9.59531C51.5305 9.91705 51.8888 10.0779 52.3218 10.0779C52.7697 10.0779 53.1429 9.91705 53.4415 9.59531C53.6356 9.37814 53.755 9.08857 53.7849 8.71053H52.3218V8.1877H54.2701C54.2925 8.30031 54.2999 8.41292 54.2999 8.50944" fill="white"/>
<path fill-rule="evenodd" clip-rule="evenodd" d="M54.2998 8.51761H54.2326C54.2326 9.11283 54.0684 9.56326 53.7549 9.91717C53.3816 10.3274 52.9113 10.5365 52.3216 10.5365C51.7543 10.5365 51.2766 10.3274 50.8809 9.90913C50.6874 9.7058 50.535 9.46144 50.4335 9.19148C50.332 8.92152 50.2836 8.63181 50.2912 8.34065C50.2912 7.71326 50.4853 7.19848 50.8884 6.77217C51.0751 6.56808 51.2985 6.40717 51.545 6.29929C51.7914 6.19142 52.0557 6.13884 52.3216 6.14478C52.5978 6.14478 52.8666 6.20109 53.1204 6.32174C53.3742 6.44239 53.5682 6.59522 53.725 6.78826L53.7773 6.74L53.725 6.69174L53.3742 7.06978L53.4189 7.11804L53.4712 7.07783C53.195 6.71587 52.7994 6.53087 52.3216 6.53087C51.8737 6.53087 51.493 6.69978 51.172 7.03761C50.8511 7.36739 50.6868 7.80978 50.6868 8.34065C50.6868 8.87152 50.8511 9.30587 51.172 9.6437C51.493 9.98152 51.8812 10.1504 52.3216 10.1504C52.7844 10.1504 53.1801 9.98152 53.4936 9.6437C53.7026 9.41848 53.822 9.10478 53.8519 8.7187V8.63826H52.3963V8.26022H54.2774V8.18783L54.2102 8.20391C54.2326 8.30848 54.2401 8.41304 54.2401 8.51761H54.3744C54.3744 8.405 54.367 8.29239 54.3446 8.17978L54.3371 8.11543H52.247V8.78304H53.7773V8.71065H53.7026C53.6802 9.07261 53.5682 9.34609 53.3891 9.53913C53.098 9.85283 52.7471 10.0057 52.3142 10.0057C51.9036 10.0057 51.5527 9.84478 51.2542 9.53913C50.9556 9.23348 50.8063 8.83935 50.8063 8.34065C50.8063 7.84196 50.9556 7.45587 51.2542 7.13413C51.5527 6.82848 51.9036 6.67565 52.3142 6.67565C52.762 6.67565 53.1054 6.83652 53.3592 7.1663L53.4115 7.23065L53.8146 6.78826L53.8594 6.74804L53.822 6.69174C53.6432 6.46939 53.4181 6.29575 53.1651 6.185C52.8984 6.0629 52.6115 5.99998 52.3216 6C51.7244 6 51.2019 6.22522 50.7913 6.67565C50.5859 6.89033 50.4237 7.14816 50.3145 7.43318C50.2054 7.7182 50.1517 8.02433 50.1568 8.33261C50.1568 8.99217 50.3658 9.55522 50.7913 10.0057C50.991 10.2231 51.2296 10.3944 51.4927 10.5092C51.7558 10.6239 52.0378 10.6798 52.3216 10.6733C52.9412 10.6733 53.4563 10.448 53.8444 10.0057L53.7997 9.95739L53.8444 10.0137C54.1953 9.63565 54.367 9.12891 54.367 8.50957H54.2998V8.51761ZM57.3977 6.69978H55.5613V8.08326H57.2185V8.59804H55.5613V9.98152H57.3977V10.5124H55.0463V6.16891H57.3977V6.69978Z" fill="white"/>
<path fill-rule="evenodd" clip-rule="evenodd" d="M57.3978 6.69991V6.62752H55.4943V8.15578H57.1514V8.52578H55.4943V10.054H57.3306V10.4401H55.1136V6.24143H57.3306V6.69991H57.3978V6.62752V6.70795H57.465V6.09665H54.9792V10.5849H57.465V9.90926H55.6286V8.67056H57.2858V8.011H55.6286V6.7723H57.465V6.69991H57.3903H57.3978ZM59.5775 10.5125H59.0624V6.69991H57.9427V6.16904H60.7047V6.69991H59.585V10.5125" fill="white"/>
<path fill-rule="evenodd" clip-rule="evenodd" d="M59.5775 10.5125V10.4401H59.1297V6.62752H58.0099V6.24143H60.6375V6.62752H59.5178V10.5125H59.5775V10.4401V10.5206H59.6522V6.7723H60.7719V6.09665H57.8681V6.7723H58.9953V10.5849H59.6447V10.5125H59.5775ZM62.7128 10.5125H63.2353V6.16904H62.7128V10.5125Z" fill="white"/>
<path fill-rule="evenodd" clip-rule="evenodd" d="M62.7128 10.5125H62.7799V6.24948H63.1606V10.4401H62.7128V10.5206H62.7799H62.7053V10.5849H63.3025V6.09665H62.6456V10.5849H62.7128V10.5125ZM65.527 10.5125H65.0044V6.69991H63.8847V6.16904H66.6467V6.69991H65.527V10.5125Z" fill="white"/>
<path fill-rule="evenodd" clip-rule="evenodd" d="M65.5268 10.5123V10.4399H65.0789V6.62733H63.9517V6.24124H66.5794V6.62733H65.4596V10.5123H65.5268V10.4399V10.5204H65.594V6.77211H66.7137V6.09646H63.8174V6.77211H64.9371V10.5847H65.594V10.5123H65.5194H65.5268ZM69.3189 9.58733C69.6175 9.90907 69.9908 10.0699 70.4163 10.0699C70.8492 10.0699 71.215 9.90907 71.5136 9.58733C71.8122 9.26559 71.9615 8.84733 71.9615 8.34059C71.9615 7.83385 71.8122 7.42363 71.5136 7.09385C71.215 6.77211 70.8492 6.61124 70.4163 6.61124C69.9833 6.61124 69.6175 6.77211 69.3189 7.09385C69.0203 7.41559 68.871 7.83385 68.871 8.34059C68.871 8.84733 69.0203 9.26559 69.3189 9.58733ZM71.8943 9.94928C71.4987 10.3917 71.006 10.6088 70.4163 10.6088C69.8265 10.6088 69.3339 10.3917 68.9382 9.94928C68.7437 9.73797 68.5906 9.48666 68.488 9.2103C68.3854 8.93394 68.3354 8.63818 68.341 8.34059C68.3351 8.04366 68.3844 7.74845 68.4862 7.47245C68.588 7.19644 68.7401 6.94525 68.9336 6.73374C69.1271 6.52224 69.3581 6.35472 69.6127 6.24111C69.8674 6.1275 70.1406 6.07011 70.4163 6.07233C70.6919 6.07011 70.9651 6.1275 71.2198 6.24111C71.4745 6.35472 71.7054 6.52224 71.8989 6.73374C72.0924 6.94525 72.2445 7.19644 72.3463 7.47245C72.4481 7.74845 72.4975 8.04366 72.4915 8.34059C72.4915 8.97602 72.2899 9.51494 71.8943 9.94928Z" fill="white"/>
<path fill-rule="evenodd" clip-rule="evenodd" d="M69.3189 9.58744L69.2741 9.6357C69.5876 9.97352 69.9683 10.1505 70.4162 10.1505C70.8641 10.1505 71.2523 9.97352 71.5583 9.6357C71.8719 9.29787 72.0286 8.86352 72.0286 8.34874C72.0286 7.81787 71.8719 7.38352 71.5583 7.0457C71.4112 6.87969 71.2338 6.74826 71.0372 6.65967C70.8407 6.57108 70.6292 6.52725 70.4162 6.53091C69.9683 6.53091 69.5876 6.70787 69.2741 7.0457C69.1186 7.21614 68.9968 7.41876 68.916 7.64133C68.8351 7.8639 68.797 8.10181 68.8038 8.3407C68.8038 8.86352 68.9606 9.30592 69.2741 9.6357L69.3712 9.53918C69.2271 9.38167 69.1144 9.19414 69.0399 8.98806C68.9655 8.78198 68.9309 8.5617 68.9382 8.3407C68.9382 7.85809 69.0875 7.45591 69.3712 7.14222C69.5063 6.99136 69.6689 6.87209 69.8487 6.79183C70.0285 6.71157 70.2216 6.67204 70.4162 6.6757C70.8343 6.6757 71.1776 6.83657 71.4613 7.14222C71.7524 7.46396 71.8943 7.85005 71.8943 8.34874C71.8943 8.83135 71.745 9.22548 71.4613 9.53918C71.1776 9.85287 70.8343 10.0057 70.4162 10.0057C70.2216 10.0094 70.0285 9.96982 69.8487 9.88956C69.6689 9.8093 69.5063 9.69003 69.3712 9.53918L69.3189 9.58744ZM71.8943 9.94939L71.8495 9.90113C71.4613 10.3274 70.991 10.5366 70.4162 10.5446C70.15 10.5458 69.8864 10.4894 69.6407 10.379C69.3951 10.2685 69.1724 10.1062 68.986 9.90151C68.7995 9.69684 68.653 9.45399 68.555 9.1873C68.4571 8.92061 68.4097 8.63548 68.4157 8.34874C68.4087 8.06133 68.4553 7.77534 68.5528 7.50771C68.6503 7.24008 68.7967 6.99627 68.9832 6.79073C69.1698 6.5852 69.3928 6.42212 69.6389 6.31117C69.8851 6.20022 70.1494 6.14365 70.4162 6.14483C70.991 6.14483 71.4613 6.35396 71.842 6.78831C72.2302 7.21461 72.4243 7.72939 72.4243 8.3407C72.4243 8.96005 72.2302 9.47483 71.8495 9.90113L71.9465 10.0057C72.3496 9.55526 72.5586 8.99222 72.5586 8.3407C72.5646 8.03426 72.5135 7.72964 72.4084 7.44485C72.3032 7.16006 72.1461 6.90089 71.9464 6.68267C71.7466 6.46444 71.5083 6.29159 71.2455 6.17434C70.9826 6.05709 70.7007 5.99783 70.4162 6.00004C70.1324 5.9989 69.8512 6.05897 69.5893 6.1767C69.3273 6.29443 69.0899 6.46745 68.891 6.68556C68.692 6.90368 68.5356 7.16248 68.4309 7.44673C68.3262 7.73099 68.2753 8.03494 68.2813 8.3407C68.2813 8.99222 68.4828 9.54722 68.8934 10.0057C69.2965 10.4561 69.8116 10.6813 70.4162 10.6813C71.0209 10.6813 71.5359 10.4561 71.9465 10.0057L71.8943 9.94939ZM73.223 10.5124V6.16896H73.85L75.8058 9.54722H75.8282L75.8058 8.7107V6.16896H76.3283V10.5124H75.7834L73.7306 6.97331H73.7082L73.7306 7.80983V10.5124H73.2155" fill="white"/>
<path fill-rule="evenodd" clip-rule="evenodd" d="M73.2231 10.5125H73.2828V6.24948H73.8053L75.7686 9.62774H75.8955L75.8731 8.71078V6.24143H76.2538V10.4401H75.8208L73.768 6.901H73.6411L73.6635 7.80991V10.4401H73.2156V10.5206H73.2903H73.2156V10.5849H73.7979V7.80991L73.7755 6.96534H73.7083V7.04578H73.7307V6.96534L73.6784 7.00556L75.7462 10.5849H76.3882V6.09665H75.7387V8.71078L75.7611 9.5473H75.8283V9.47491H75.8059V9.55534L75.8656 9.50708L73.8874 6.09665H73.1484V10.5849H73.2231V10.5125Z" fill="white"/>
</svg>
