<svg width="73" height="20" viewBox="0 0 73 20" fill="none" xmlns="http://www.w3.org/2000/svg">
<path d="M27.44 15V3.24H29.712V15H27.44ZM34.576 15L30.992 9.912H33.536L37.232 15H34.576ZM29.04 11.096V9.256H32.016C32.432 9.256 32.7893 9.17067 33.088 9C33.3973 8.82933 33.6373 8.58933 33.808 8.28C33.9787 7.97067 34.064 7.61867 34.064 7.224C34.064 6.81867 33.9787 6.46133 33.808 6.152C33.6373 5.84267 33.3973 5.60267 33.088 5.432C32.7893 5.26133 32.432 5.176 32.016 5.176H29.04V3.24H31.776C32.7147 3.24 33.5253 3.37867 34.208 3.656C34.9013 3.93333 35.4347 4.35467 35.808 4.92C36.1813 5.48533 36.368 6.19467 36.368 7.048V7.304C36.368 8.168 36.176 8.87733 35.792 9.432C35.4187 9.98667 34.8907 10.4027 34.208 10.68C33.5253 10.9573 32.7147 11.096 31.776 11.096H29.04ZM44.0436 15V12.424H43.6756V9.56C43.6756 9.05867 43.553 8.68533 43.3076 8.44C43.0623 8.19467 42.6836 8.072 42.1716 8.072C41.905 8.072 41.585 8.07733 41.2116 8.088C40.8383 8.09867 40.4596 8.11467 40.0756 8.136C39.7023 8.14667 39.3663 8.16267 39.0676 8.184V6.296C39.313 6.27467 39.5903 6.25333 39.8996 6.232C40.209 6.21067 40.5236 6.2 40.8436 6.2C41.1743 6.18933 41.4836 6.184 41.7716 6.184C42.6676 6.184 43.409 6.30133 43.9956 6.536C44.593 6.77067 45.041 7.13867 45.3396 7.64C45.649 8.14133 45.8036 8.79733 45.8036 9.608V15H44.0436ZM41.2436 15.224C40.6143 15.224 40.0596 15.112 39.5796 14.888C39.1103 14.664 38.7423 14.344 38.4756 13.928C38.2196 13.512 38.0916 13.0107 38.0916 12.424C38.0916 11.784 38.2463 11.2613 38.5556 10.856C38.8756 10.4507 39.3183 10.1467 39.8836 9.944C40.4596 9.74133 41.1316 9.64 41.8996 9.64H43.9156V10.968H41.8676C41.3556 10.968 40.961 11.096 40.6836 11.352C40.417 11.5973 40.2836 11.9173 40.2836 12.312C40.2836 12.7067 40.417 13.0267 40.6836 13.272C40.961 13.5173 41.3556 13.64 41.8676 13.64C42.177 13.64 42.4596 13.5867 42.7156 13.48C42.9823 13.3627 43.201 13.1707 43.3716 12.904C43.553 12.6267 43.6543 12.2533 43.6756 11.784L44.2196 12.408C44.1663 13.016 44.017 13.528 43.7716 13.944C43.537 14.36 43.2063 14.68 42.7796 14.904C42.3636 15.1173 41.8516 15.224 41.2436 15.224ZM52.0419 15.304C51.2845 15.304 50.6285 15.176 50.0739 14.92C49.5299 14.664 49.0712 14.3227 48.6979 13.896C48.3352 13.4693 48.0632 12.9893 47.8819 12.456C47.7005 11.9227 47.6099 11.3787 47.6099 10.824V10.52C47.6099 9.93333 47.7005 9.37333 47.8819 8.84C48.0739 8.296 48.3565 7.816 48.7299 7.4C49.1032 6.97333 49.5619 6.63733 50.1059 6.392C50.6605 6.136 51.3005 6.008 52.0259 6.008C52.7832 6.008 53.4605 6.15733 54.0579 6.456C54.6552 6.744 55.1299 7.14933 55.4819 7.672C55.8445 8.19467 56.0472 8.80267 56.0899 9.496H53.9299C53.8765 9.048 53.6845 8.67467 53.3539 8.376C53.0339 8.07733 52.5912 7.928 52.0259 7.928C51.5352 7.928 51.1245 8.04533 50.7939 8.28C50.4739 8.51467 50.2339 8.84 50.0739 9.256C49.9139 9.66133 49.8339 10.1307 49.8339 10.664C49.8339 11.176 49.9085 11.64 50.0579 12.056C50.2179 12.472 50.4579 12.7973 50.7779 13.032C51.1085 13.2667 51.5299 13.384 52.0419 13.384C52.4259 13.384 52.7565 13.3147 53.0339 13.176C53.3112 13.0373 53.5299 12.8453 53.6899 12.6C53.8605 12.3547 53.9672 12.0773 54.0099 11.768H56.1699C56.1272 12.472 55.9192 13.0907 55.5459 13.624C55.1832 14.1467 54.6979 14.5573 54.0899 14.856C53.4925 15.1547 52.8099 15.304 52.0419 15.304ZM57.9515 15V3.32H60.1755V10.136H59.7915C59.7915 9.26133 59.9035 8.52 60.1275 7.912C60.3515 7.304 60.6822 6.84 61.1195 6.52C61.5675 6.2 62.1328 6.04 62.8155 6.04H62.9115C63.9035 6.04 64.6555 6.38133 65.1675 7.064C65.6795 7.74667 65.9355 8.73867 65.9355 10.04V15H63.7115V9.832C63.7115 9.27733 63.5515 8.84 63.2315 8.52C62.9222 8.2 62.5115 8.04 61.9995 8.04C61.4555 8.04 61.0128 8.22133 60.6715 8.584C60.3408 8.936 60.1755 9.4 60.1755 9.976V15H57.9515ZM68.7425 15V6.312H70.9665V15H68.7425ZM67.5265 7.976V6.312H70.9665V7.976H67.5265ZM69.5585 5.272C69.1212 5.272 68.7958 5.16 68.5825 4.936C68.3798 4.70133 68.2785 4.41333 68.2785 4.072C68.2785 3.70933 68.3798 3.416 68.5825 3.192C68.7958 2.968 69.1212 2.856 69.5585 2.856C69.9958 2.856 70.3158 2.968 70.5185 3.192C70.7212 3.416 70.8225 3.70933 70.8225 4.072C70.8225 4.41333 70.7212 4.70133 70.5185 4.936C70.3158 5.16 69.9958 5.272 69.5585 5.272Z" fill="#293145"/>
<circle cx="12" cy="12" r="6" fill="#293145"/>
<circle cx="6" cy="6" r="6" fill="#0F9AFE"/>
</svg>
