<svg width="210" height="183" viewBox="0 0 210 183" fill="none" xmlns="http://www.w3.org/2000/svg">
<rect width="210" height="183" fill="#09090B"/>
<g id="Rachi (Mobile)">
<rect width="360" height="3111" transform="translate(-75 -264)" fill="white"/>
<rect id="bg" x="-75" y="-204" width="360" height="387" fill="#EFF8FF"/>
<g id="Working from anywhere-rafiki 1" clip-path="url(#clip0_41733_754)">
<g id="freepik--background-complete--inject-44">
<path id="Vector" d="M210 160.608H0V160.713H210V160.608Z" fill="#EBEBEB"/>
<path id="Vector_2" d="M188.958 167.366H175.048V167.471H188.958V167.366Z" fill="#EBEBEB"/>
<path id="Vector_3" d="M139.112 168.508H135.462V168.613H139.112V168.508Z" fill="#EBEBEB"/>
<path id="Vector_4" d="M174.627 163.468H166.568V163.573H174.627V163.468Z" fill="#EBEBEB"/>
<path id="Vector_5" d="M40.173 164.174H22.0332V164.279H40.173V164.174Z" fill="#EBEBEB"/>
<path id="Vector_6" d="M46.5739 164.174H43.9153V164.279H46.5739V164.174Z" fill="#EBEBEB"/>
<path id="Vector_7" d="M94.5631 165.946H55.2175V166.051H94.5631V165.946Z" fill="#EBEBEB"/>
<path id="Vector_8" d="M99.54 141.876H18.4422C17.8068 141.875 17.1979 141.622 16.7491 141.172C16.3002 140.722 16.0482 140.113 16.0482 139.478V25.4772C16.0537 24.8455 16.3082 24.2415 16.7565 23.7964C17.2047 23.3513 17.8105 23.1011 18.4422 23.1H99.54C100.176 23.1 100.786 23.3526 101.236 23.8024C101.685 24.2521 101.938 24.8621 101.938 25.4982V139.478C101.938 140.114 101.685 140.724 101.236 141.174C100.786 141.623 100.176 141.876 99.54 141.876V141.876ZM18.4422 23.184C17.8347 23.1851 17.2525 23.4272 16.8233 23.8571C16.3942 24.2871 16.1532 24.8697 16.1532 25.4772V139.478C16.1532 140.085 16.3942 140.668 16.8233 141.098C17.2525 141.528 17.8347 141.77 18.4422 141.771H99.54C100.148 141.77 100.73 141.528 101.16 141.098C101.59 140.668 101.832 140.086 101.833 139.478V25.4772C101.832 24.8693 101.59 24.2867 101.16 23.8569C100.73 23.427 100.148 23.1851 99.54 23.184H18.4422Z" fill="#EBEBEB"/>
<path id="Vector_9" d="M190.39 141.876H109.288C108.652 141.875 108.043 141.622 107.594 141.172C107.144 140.723 106.891 140.113 106.89 139.478V25.4772C106.897 24.8451 107.152 24.2411 107.601 23.7962C108.05 23.3512 108.656 23.101 109.288 23.1H190.39C191.021 23.1022 191.626 23.3529 192.073 23.7979C192.52 24.2429 192.774 24.8462 192.78 25.4772V139.478C192.78 140.112 192.528 140.721 192.08 141.171C191.633 141.62 191.025 141.874 190.39 141.876V141.876ZM109.288 23.184C108.68 23.1851 108.098 23.427 107.668 23.8569C107.238 24.2867 106.996 24.8693 106.995 25.4772V139.478C106.996 140.086 107.238 140.668 107.668 141.098C108.098 141.528 108.68 141.77 109.288 141.771H190.39C190.998 141.77 191.581 141.528 192.01 141.098C192.44 140.668 192.682 140.086 192.683 139.478V25.4772C192.682 24.8693 192.44 24.2867 192.01 23.8569C191.581 23.427 190.998 23.1851 190.39 23.184H109.288Z" fill="#EBEBEB"/>
<path id="Vector_10" d="M55.0201 159.239H26.0107C29.1565 156.349 36.5611 156.526 36.5611 156.526C36.5611 156.526 31.4245 151.011 33.3187 147.47C35.2129 143.93 40.2865 151.691 40.2865 151.691C40.2865 151.691 33.9067 140.146 36.2797 137.269C38.6527 134.392 45.0325 149.911 45.0325 149.911C45.0325 149.911 41.1559 133.484 43.4869 133.018C45.8179 132.552 48.2539 148.596 48.2539 148.596C48.2539 148.596 47.4139 133.93 49.3753 134.35C51.3367 134.77 50.4001 153.905 50.4001 153.905C50.4001 153.905 52.3741 144.14 53.2141 147.256C54.0541 150.373 52.3741 157.046 52.3741 157.046C53.0107 157.009 53.6377 157.215 54.1287 157.622C54.6197 158.029 54.9383 158.606 55.0201 159.239V159.239Z" fill="#E0E0E0"/>
<path id="Vector_11" d="M70.241 159.239H107.911C103.828 155.488 94.2104 155.719 94.2104 155.719C94.2104 155.719 100.88 148.55 98.4104 143.959C95.9408 139.368 89.3678 149.419 89.3678 149.419C89.3678 149.419 97.6502 134.425 94.5674 130.687C91.4846 126.949 83.2064 147.109 83.2064 147.109C83.2064 147.109 88.2464 125.777 85.2098 125.172C82.1732 124.568 79.0232 145.4 79.0232 145.4C79.0232 145.4 80.111 126.357 77.5616 126.899C75.0122 127.44 76.2512 152.296 76.2512 152.296C76.2512 152.296 73.6892 139.616 72.593 143.661C71.4968 147.705 73.6892 156.374 73.6892 156.374C71.1776 156.425 70.451 158.151 70.241 159.239Z" fill="#E0E0E0"/>
<path id="Vector_12" d="M104.782 159.239H133.791C130.645 156.349 123.241 156.526 123.241 156.526C123.241 156.526 128.377 151.011 126.483 147.47C124.589 143.93 119.515 151.691 119.515 151.691C119.515 151.691 125.895 140.146 123.522 137.269C121.149 134.392 114.769 149.911 114.769 149.911C114.769 149.911 118.646 133.484 116.315 133.018C113.984 132.552 111.548 148.596 111.548 148.596C111.548 148.596 112.388 133.93 110.426 134.35C108.465 134.77 109.414 153.905 109.414 153.905C109.414 153.905 107.44 144.14 106.6 147.256C105.76 150.373 107.44 157.046 107.44 157.046C106.802 157.006 106.171 157.21 105.678 157.617C105.184 158.024 104.864 158.604 104.782 159.239V159.239Z" fill="#E0E0E0"/>
<path id="Vector_13" d="M48.1278 159.239C46.8426 139.499 43.7472 88.9856 44.184 67.616L42.1218 67.4774C42.1218 67.4774 40.0638 131.855 41.1894 159.239H48.1278Z" fill="#E0E0E0"/>
<path id="Vector_14" d="M43.6338 76.444L48.93 72.139L49.4592 69.4678L52.6386 64.6168L53.3232 64.369L50.1858 69.8542L50.0598 71.6938L54.8268 70.8202L56.8218 67.1368L58.926 65.4862L59.241 66.0322L57.4476 67.6324L55.9776 71.5636L49.4508 73.2058L42.6426 81.4588L43.6338 76.444Z" fill="#E0E0E0"/>
<path id="Vector_15" d="M42.5963 72.4416L42.3401 74.2476L36.6155 68.7666L33.0875 68.0694L30.3659 66.192L30.5507 66.0114L33.1379 67.6578L36.0023 67.7922L33.2891 64.4196L30.6179 62.475L30.7985 62.3616L33.4781 64.0962L37.8881 68.5608L37.4513 64.4784L36.4307 62.7438L36.3299 62.265L37.6151 64.155L40.9667 63.0504L41.2481 63.2604L37.8083 64.4826L38.4299 68.985L42.5963 72.4416Z" fill="#E0E0E0"/>
<path id="Vector_16" d="M61.6519 65.411C61.7821 64.6802 60.6229 64.151 59.3713 64.0712C58.4494 64.0113 57.5345 63.8708 56.6371 63.6512C56.7547 63.3908 56.6707 63.0758 56.8387 62.6222C57.2041 61.631 57.0067 60.9632 55.9105 60.1022C54.8143 59.2412 53.7097 59.4092 51.2905 59.6822C48.8713 59.9552 49.2241 58.8758 47.0569 57.8384C44.8897 56.801 37.3423 57.2336 35.9521 58.1996C35.1121 58.7792 31.8571 58.439 30.9541 59.8586C30.0511 61.2782 24.7129 60.9002 25.4185 62.1602C26.1241 63.4202 26.9767 63.4496 26.8339 65.5202C26.6911 67.5908 28.5685 66.8978 30.4417 67.6748C32.3149 68.4518 32.0629 66.9944 33.2893 66.902C34.5157 66.8096 34.1755 66.6836 35.4355 66.0998C36.6955 65.516 36.5191 66.251 38.5183 67.2548C39.6187 67.8092 40.0261 67.1372 40.3663 66.4148C40.5721 66.881 40.3411 67.5614 40.7527 68.351C41.0845 68.981 42.4075 69.1238 43.6675 69.0062C45.0493 71.627 45.6415 69.4262 47.3719 69.6278C49.1989 69.8252 51.9457 68.3678 53.2309 68.2292C54.5161 68.0906 54.6043 67.7462 55.9315 68.7794C57.2587 69.8126 62.9917 67.7966 63.5335 66.7592C64.0753 65.7218 61.5217 66.1418 61.6519 65.411Z" fill="#E0E0E0"/>
<path id="Vector_17" d="M85.26 159.239C84.042 139.94 81.9 102.686 82.2234 86.0622L80.4594 85.9446C80.4594 85.9446 78.9264 133.774 79.5018 159.239H85.26Z" fill="#E0E0E0"/>
<path id="Vector_18" d="M81.7404 93.6138L86.268 89.9304L86.7216 87.6456L89.439 83.5002L90.0228 83.286L87.3432 87.9732L87.234 89.5524L91.3122 88.8006L93.0174 85.6548L94.8192 84.2394L95.088 84.7056L93.555 86.0748L92.295 89.439L86.7132 90.8418L80.8878 97.8978L81.7404 93.6138Z" fill="#E0E0E0"/>
<path id="Vector_19" d="M80.85 90.1909L80.6316 91.7323L75.7344 87.0451L72.7188 86.4487L70.392 84.8443L70.5516 84.6889L72.7608 86.0959L75.2094 86.2135L72.891 83.3281L70.6062 81.6649L70.7616 81.5683L73.0548 83.0509L76.8264 86.8687L76.4526 83.3785L75.5748 81.8917L75.4908 81.4843L76.5912 83.1013L79.4598 82.1563L79.6992 82.3369L76.7592 83.3827L77.2884 87.2341L80.85 90.1909Z" fill="#E0E0E0"/>
<path id="Vector_20" d="M97.1501 84.1761C97.2593 83.5503 96.2681 83.1051 95.2013 83.0295C94.4107 82.9763 93.6264 82.8526 92.8577 82.6599C92.9585 82.4373 92.8871 82.1643 93.0299 81.7779C93.3449 80.9379 93.1769 80.3625 92.2403 79.6233C91.3037 78.8841 90.3545 79.0311 88.3007 79.2705C86.2469 79.5099 86.5367 78.5817 84.6803 77.6955C82.8239 76.8093 76.3727 77.1789 75.1841 78.0021C74.4701 78.4977 71.6813 78.2121 70.9085 79.4259C70.1357 80.6397 65.5577 80.3289 66.1625 81.3831C66.7673 82.4373 67.4897 82.4877 67.3721 84.2517C67.2545 86.0157 68.8505 85.4277 70.4549 86.0913C72.0593 86.7549 71.8451 85.5117 72.8909 85.4319C73.9367 85.3521 73.6511 85.2471 74.7263 84.7473C75.8015 84.2475 75.6545 84.8733 77.3639 85.7343C78.3047 86.2089 78.6533 85.6335 78.9473 85.0329C79.1195 85.4319 78.9221 86.0157 79.2749 86.6877C79.5563 87.2295 80.6903 87.3513 81.7655 87.2505C82.9457 89.4933 83.4455 87.6201 84.9365 87.7839C86.4947 87.9519 88.8467 86.7171 89.9471 86.5869C91.0475 86.4567 91.1189 86.1669 92.2571 87.0573C93.3953 87.9477 98.2967 86.2173 98.7587 85.3269C99.2207 84.4365 97.0199 84.8019 97.1501 84.1761Z" fill="#E0E0E0"/>
<path id="Vector_21" d="M71.3244 139.99C70.9338 137.226 63.5796 80.4046 61.9122 45.1498H59.157C59.157 45.1498 60.7068 116.378 65.3226 142.342L71.3244 139.99Z" fill="#E6E6E6"/>
<path id="Vector_22" d="M36.5063 159.239H109.641C101.707 154.913 83.0424 155.182 83.0424 155.182C83.0424 155.182 95.9909 146.92 91.2155 141.628C86.4401 136.336 73.6553 147.928 73.6553 147.928C73.6553 147.928 89.7329 130.65 83.7353 126.34C77.7377 122.031 61.6727 145.266 61.6727 145.266C61.6727 145.266 71.4377 120.679 65.5661 119.982C59.6945 119.284 53.5499 143.296 53.5499 143.296C53.5499 143.296 55.6499 121.347 50.7149 121.972C45.7799 122.598 48.1655 151.242 48.1655 151.242C48.1655 151.242 43.1927 136.63 41.0675 141.288C38.9423 145.946 43.2011 155.942 43.2011 155.942C38.3165 155.997 36.9095 157.987 36.5063 159.239Z" fill="#F0F0F0"/>
<path id="Vector_23" d="M61.9796 56.9476L68.6408 50.7442L69.1028 47.1406L72.8996 40.3954L73.7858 40.0048L70.1024 47.5858V50.047L76.3688 48.4552L78.6956 43.3774L81.3458 40.9834L81.812 41.6806L79.5692 43.9738L77.969 49.3414L69.4304 52.1176L61.106 63.7096L61.9796 56.9476Z" fill="#E6E6E6"/>
<path id="Vector_24" d="M60.2322 51.7188L60.0558 54.138L51.9414 47.3634L47.1828 46.7502L43.3902 44.4948L43.6254 44.2386L47.2122 46.1958L51.0384 46.1244L47.1198 41.874L43.3902 39.5262L43.6254 39.3582L47.3466 41.4288L53.6172 46.9728L52.668 41.5758L51.1518 39.3582L50.9754 38.7324L52.8612 41.1348L57.2208 39.3582L57.6114 39.6144L53.1468 41.5548L54.3774 47.4894L60.2322 51.7188Z" fill="#E6E6E6"/>
<path id="Vector_25" d="M84.9661 40.6393C85.0711 39.6565 83.4835 39.0643 81.8119 39.0643C80.5784 39.0599 79.3475 38.9503 78.1327 38.7367C78.2629 38.3755 78.1327 37.9597 78.3049 37.3423C78.7039 35.9941 78.3847 35.1204 76.8433 34.0746C75.3019 33.0288 73.8487 33.348 70.6777 33.9402C67.5067 34.5324 67.8595 33.054 64.8775 31.8696C61.8955 30.6852 51.8953 31.9411 50.1313 33.3481C49.0729 34.1881 44.7007 34.0368 43.6255 36.0108C42.5503 37.9848 35.3935 37.9807 36.4435 39.5557C37.4935 41.1307 38.6401 41.1349 38.6401 43.8943C38.6401 46.6537 41.0677 45.5743 43.6339 46.4143C46.2001 47.2543 45.7339 45.3642 47.3551 45.129C48.9763 44.8938 48.5143 44.7594 50.1397 43.869C51.7651 42.9786 51.5929 43.9698 54.3397 45.129C55.8559 45.7674 56.3389 44.8392 56.7295 43.869C57.0403 44.4738 56.8009 45.4021 57.4183 46.4143C57.9139 47.2249 59.6905 47.2921 61.3537 47.0233C63.4285 50.3833 64.0207 47.4433 66.3433 47.5189C68.7877 47.6155 72.3157 45.4482 74.0167 45.129C75.7177 44.8098 75.7975 44.3647 77.6623 45.6163C79.5271 46.8679 86.9695 43.6759 87.5953 42.2563C88.2211 40.8367 84.8611 41.6263 84.9661 40.6393Z" fill="#F0F0F0"/>
<path id="Vector_26" d="M178.92 44.5536C178.92 43.7995 178.621 43.0763 178.087 42.5431C177.554 42.0098 176.831 41.7102 176.077 41.7102C175.801 41.71 175.526 41.7511 175.262 41.832C175.387 40.977 175.326 40.1052 175.084 39.2757C174.842 38.4463 174.424 37.6786 173.859 37.0248C173.294 36.371 172.595 35.8464 171.81 35.4867C171.024 35.1269 170.17 34.9404 169.306 34.9398C168.934 34.9407 168.563 34.9758 168.198 35.0448C167.605 34.0692 166.711 33.3128 165.651 32.89C164.591 32.4672 163.421 32.4009 162.32 32.7011C161.219 33.0014 160.245 33.6518 159.546 34.5542C158.847 35.4567 158.461 36.562 158.445 37.7034H158.357C157.708 37.6843 157.062 37.7956 156.457 38.0307C155.852 38.2658 155.301 38.6199 154.835 39.0721C154.369 39.5242 153.999 40.0652 153.746 40.663C153.494 41.2608 153.363 41.9033 153.363 42.5523C153.363 43.2014 153.494 43.8439 153.746 44.4417C153.999 45.0395 154.369 45.5805 154.835 46.0326C155.301 46.4848 155.852 46.8389 156.457 47.074C157.062 47.309 157.708 47.4203 158.357 47.4012H176.157C176.898 47.3804 177.601 47.0711 178.117 46.5392C178.633 46.0073 178.922 45.2949 178.92 44.5536Z" fill="#F5F5F5"/>
<path id="Vector_27" d="M117.566 71.0974C117.566 70.7242 117.493 70.3547 117.35 70.01C117.207 69.6652 116.998 69.352 116.733 69.0883C116.469 68.8246 116.156 68.6156 115.811 68.4732C115.466 68.3307 115.096 68.2577 114.723 68.2582C114.447 68.2584 114.173 68.298 113.908 68.3758C114.033 67.5198 113.972 66.6469 113.729 65.8165C113.487 64.9861 113.068 64.2178 112.502 63.5638C111.935 62.9098 111.235 62.3855 110.448 62.0265C109.66 61.6676 108.805 61.4824 107.94 61.4836C107.568 61.4845 107.197 61.5196 106.831 61.5886C106.235 60.619 105.34 59.869 104.281 59.4512C103.222 59.0333 102.056 58.9701 100.958 59.2711C99.8599 59.5721 98.8891 60.221 98.1913 61.1205C97.4934 62.02 97.106 63.1215 97.0873 64.2598H97.0201C96.3713 64.2407 95.7253 64.352 95.1203 64.5871C94.5153 64.8222 93.9637 65.1763 93.498 65.6285C93.0324 66.0806 92.6622 66.6216 92.4094 67.2194C92.1566 67.8172 92.0264 68.4597 92.0264 69.1087C92.0264 69.7578 92.1566 70.4002 92.4094 70.998C92.6622 71.5959 93.0324 72.1369 93.498 72.589C93.9637 73.0412 94.5153 73.3953 95.1203 73.6303C95.7253 73.8654 96.3713 73.9767 97.0201 73.9576H114.82C115.56 73.9335 116.262 73.6209 116.775 73.0865C117.288 72.5522 117.572 71.8383 117.566 71.0974Z" fill="#F5F5F5"/>
<path id="Vector_28" d="M183.603 106.13C183.603 105.376 183.303 104.652 182.77 104.119C182.237 103.586 181.514 103.286 180.76 103.286C180.483 103.286 180.209 103.327 179.945 103.408C180.07 102.553 180.009 101.681 179.767 100.852C179.525 100.022 179.107 99.2547 178.542 98.601C177.977 97.9472 177.278 97.4226 176.493 97.0629C175.707 96.7031 174.853 96.5166 173.989 96.516C173.617 96.5169 173.246 96.552 172.88 96.621C172.288 95.6453 171.394 94.889 170.334 94.4662C169.273 94.0434 168.104 93.9771 167.003 94.2773C165.902 94.5775 164.928 95.228 164.229 96.1304C163.53 97.0328 163.143 98.1382 163.128 99.2796H163.04C161.754 99.2796 160.522 99.7903 159.613 100.699C158.704 101.608 158.193 102.841 158.193 104.126C158.193 105.412 158.704 106.645 159.613 107.554C160.522 108.463 161.754 108.973 163.04 108.973H180.839C181.58 108.952 182.282 108.644 182.799 108.113C183.315 107.582 183.603 106.87 183.603 106.13Z" fill="#F5F5F5"/>
<path id="Vector_29" d="M41.5001 93.3028C41.499 92.8476 41.3176 92.4113 40.9957 92.0894C40.6738 91.7675 40.2375 91.5862 39.7823 91.585C39.6143 91.5863 39.4474 91.6118 39.2867 91.6606C39.3618 91.1449 39.3254 90.6191 39.1798 90.1186C39.0343 89.6182 38.783 89.1548 38.443 88.7599C38.1029 88.3649 37.6821 88.0475 37.2089 87.8292C36.7356 87.6108 36.221 87.4966 35.6999 87.4942C35.4758 87.4938 35.2521 87.5149 35.0321 87.5572C34.6706 86.9749 34.1307 86.525 33.4927 86.2745C32.8547 86.024 32.1529 85.9864 31.4918 86.1673C30.8307 86.3481 30.2457 86.7378 29.8241 87.2781C29.4025 87.8185 29.1668 88.4806 29.1521 89.1658H29.0975C28.3177 89.1658 27.5699 89.4756 27.0186 90.0269C26.4672 90.5783 26.1575 91.3261 26.1575 92.1058C26.1575 92.8856 26.4672 93.6334 27.0186 94.1847C27.5699 94.7361 28.3177 95.0458 29.0975 95.0458H39.8285C40.2804 95.0337 40.7093 94.844 41.0223 94.5177C41.3352 94.1914 41.5069 93.7549 41.5001 93.3028V93.3028Z" fill="#F5F5F5"/>
<path id="Vector_30" d="M132.607 39.3666C132.607 39.099 132.544 38.835 132.424 38.5958C132.304 38.3566 132.13 38.1488 131.915 37.9889C131.701 37.8289 131.452 37.7214 131.188 37.6747C130.925 37.6281 130.654 37.6437 130.397 37.7202C130.473 37.2034 130.436 36.6765 130.29 36.1752C130.143 35.6739 129.891 35.2099 129.55 34.8147C129.208 34.4195 128.786 34.1024 128.311 33.8848C127.836 33.6673 127.32 33.5544 126.798 33.5538C126.573 33.5554 126.348 33.5765 126.126 33.6168C125.765 33.0345 125.225 32.5845 124.587 32.3341C123.949 32.0836 123.247 32.046 122.586 32.2268C121.925 32.4077 121.34 32.7973 120.918 33.3377C120.496 33.878 120.261 34.5402 120.246 35.2254H120.196C119.416 35.2254 118.668 35.5352 118.117 36.0865C117.565 36.6379 117.256 37.3857 117.256 38.1654C117.256 38.9451 117.565 39.6929 118.117 40.2443C118.668 40.7957 119.416 41.1054 120.196 41.1054H130.956C131.404 41.089 131.828 40.8978 132.136 40.5727C132.445 40.2477 132.614 39.8147 132.607 39.3666Z" fill="#F5F5F5"/>
</g>
<g id="freepik--Shadow--inject-44">
<path id="freepik--path--inject-44" d="M105 179.575C149.975 179.575 186.434 177.447 186.434 174.821C186.434 172.195 149.975 170.066 105 170.066C60.0255 170.066 23.5663 172.195 23.5663 174.821C23.5663 177.447 60.0255 179.575 105 179.575Z" fill="#F5F5F5"/>
</g>
<g id="freepik--Tree--inject-44">
<path id="Vector_31" d="M156.345 168C156.345 168 154.98 167.928 154.845 164.22C154.711 160.511 157.113 159.49 158.961 159.948C158.961 159.948 158.693 157.29 159.89 157.39C161.087 157.491 161.007 159.259 161.007 159.259C161.007 159.259 161.427 155.479 163.052 155.479C164.678 155.479 163.052 159.936 163.052 159.936C163.052 159.936 165.316 158.848 166.148 159.936C166.979 161.023 165.11 162.296 165.11 162.296C165.11 162.296 168.05 163.254 166.815 166.294C166.815 166.294 168.861 166.614 169.432 167.974C169.432 167.974 169.268 165.223 170.007 165.408C170.747 165.593 170.579 168.004 170.579 168.004C170.579 168.004 171.805 165.358 172.868 166.29C173.93 167.223 172.38 169.47 172.38 169.47C172.38 169.47 174.426 168.478 174.749 169.793C175.073 171.108 173.607 171.599 173.607 171.599C173.607 171.599 175.732 171.108 175.732 173.548C175.732 173.548 179.823 173.157 180.806 175.35H156.446L156.345 168Z" fill="#0F9AFE"/>
<path id="Vector_32" opacity="0.4" d="M156.345 168C156.345 168 154.98 167.928 154.845 164.22C154.711 160.511 157.113 159.49 158.961 159.948C158.961 159.948 158.693 157.29 159.89 157.39C161.087 157.491 161.007 159.259 161.007 159.259C161.007 159.259 161.427 155.479 163.052 155.479C164.678 155.479 163.052 159.936 163.052 159.936C163.052 159.936 165.316 158.848 166.148 159.936C166.979 161.023 165.11 162.296 165.11 162.296C165.11 162.296 168.05 163.254 166.815 166.294C166.815 166.294 168.861 166.614 169.432 167.974C169.432 167.974 169.268 165.223 170.007 165.408C170.747 165.593 170.579 168.004 170.579 168.004C170.579 168.004 171.805 165.358 172.868 166.29C173.93 167.223 172.38 169.47 172.38 169.47C172.38 169.47 174.426 168.478 174.749 169.793C175.073 171.108 173.607 171.599 173.607 171.599C173.607 171.599 175.732 171.108 175.732 173.548C175.732 173.548 179.823 173.157 180.806 175.35H156.446L156.345 168Z" fill="white"/>
<path id="Vector_33" d="M143.896 129.78C143.308 139.44 140.116 175.14 140.116 175.14L163.178 175.354L156.693 110.846L167.042 107.688L169.214 101.417L177.954 96.4737L182.225 89.9133L180.575 89.4933L175.858 95.5497L170.356 96.7467L172.712 91.1649H170.1L163.548 104.092L156.828 105.47L156.215 81.9501C149.461 85.1043 147.302 79.8501 147.302 79.8501C147.302 79.8501 145.555 116.667 144.572 119.448C143.577 118.894 142.651 118.224 141.813 117.453C139.534 115.424 137.554 113.082 135.933 110.497L135.513 109.805H133.413L143.896 129.78Z" fill="#0F9AFE"/>
<g id="Group" opacity="0.2">
<path id="Vector_34" opacity="0.2" d="M143.896 129.78C143.308 139.44 140.116 175.14 140.116 175.14L163.178 175.354L156.693 110.846L167.042 107.688L169.213 101.417L177.954 96.4737L182.225 89.9133L180.574 89.4933L175.858 95.5497L170.356 96.7467L172.712 91.1649H170.1L163.548 104.092L156.828 105.47L156.214 81.9501C149.461 85.1043 147.302 79.8501 147.302 79.8501C147.302 79.8501 145.555 116.667 144.572 119.448C143.577 118.894 142.651 118.224 141.813 117.453C139.534 115.424 137.554 113.082 135.933 110.497L135.513 109.805H133.413L143.896 129.78Z" fill="black"/>
</g>
<path id="Vector_35" opacity="0.1" d="M168.206 99.6744L165.396 105.092L156.605 107.318C156.605 107.318 156.635 105.937 156.777 104.164L156.815 105.491L163.535 104.114L170.1 91.1862H172.721L170.364 96.768L175.866 95.571L180.583 89.5146L180.814 89.5692L177.181 95.067L168.206 99.6744Z" fill="black"/>
<path id="Vector_36" d="M155.551 143.455L157.626 175.304L153.968 175.27V150.133L155.551 143.455Z" fill="#0F9AFE"/>
<path id="Vector_37" d="M143.896 129.78L133.396 109.825H135.496L135.916 110.519C137.537 113.103 139.517 115.445 141.796 117.474C142.634 118.245 143.56 118.915 144.556 119.469C145.538 116.688 147.286 79.8711 147.286 79.8711C147.625 80.5911 148.118 81.2277 148.731 81.7358C149.343 82.2439 150.06 82.611 150.83 82.8111C150.928 94.7027 151.028 106.594 151.129 118.486C151.872 116.806 152.519 115.172 152.582 113.412C152.804 118.284 153.103 123.522 153.082 128.331L149.041 143.237L148.26 175.215L140.129 175.14C140.129 175.14 143.308 139.44 143.896 129.78Z" fill="#0F9AFE"/>
<path id="Vector_38" d="M117.94 67.477C114.58 68.6782 112.257 72.2356 112.362 75.8098C112.459 77.5997 113.057 79.3265 114.087 80.7937C115.116 82.2609 116.537 83.4096 118.188 84.109C119.856 84.7654 121.664 84.9869 123.441 84.7525C125.218 84.5181 126.907 83.8356 128.348 82.7692C128.495 86.2006 130.838 89.9302 134.11 90.9676C135.763 91.4626 137.526 91.4519 139.172 90.937C140.819 90.4221 142.274 89.4264 143.35 88.078C152.17 93.6178 183.04 95.6716 188.466 72.0802C189.584 67.2082 186.87 62.0506 182.893 59.0224C178.916 55.9942 173.859 54.7552 168.899 54.1462C164.19 46.6492 153.749 42.5542 144.959 43.7302C136.168 44.9062 128.385 51.5464 125.819 60.0178C116.877 60.0598 117.81 68.0776 117.94 67.477Z" fill="#0F9AFE"/>
<g id="Group_2" opacity="0.2">
<path id="Vector_39" opacity="0.2" d="M117.94 67.477C114.58 68.6782 112.257 72.2356 112.362 75.8098C112.459 77.5997 113.057 79.3265 114.086 80.7937C115.116 82.2609 116.537 83.4096 118.188 84.109C119.856 84.7654 121.664 84.9869 123.441 84.7525C125.218 84.5181 126.907 83.8356 128.348 82.7692C128.495 86.2006 130.838 89.9302 134.11 90.9676C135.763 91.4626 137.526 91.4519 139.172 90.937C140.819 90.4221 142.274 89.4264 143.35 88.078C152.17 93.6178 183.04 95.6716 188.466 72.0802C189.584 67.2082 186.87 62.0506 182.893 59.0224C178.916 55.9942 173.859 54.7552 168.899 54.1462C164.19 46.6492 153.749 42.5542 144.959 43.7302C136.168 44.9062 128.385 51.5464 125.819 60.0178C116.877 60.0598 117.81 68.0776 117.94 67.477Z" fill="black"/>
</g>
<path id="Vector_40" d="M128.831 113.883C129.332 114.627 130.036 115.212 130.858 115.57C131.68 115.928 132.588 116.045 133.474 115.906C134.36 115.767 135.189 115.379 135.862 114.786C136.536 114.194 137.026 113.421 137.277 112.56C139.377 114.03 142.594 113.669 144.711 112.237C145.778 111.514 146.6 110.483 147.068 109.282C147.535 108.08 147.625 106.765 147.327 105.511C147.028 104.257 146.354 103.123 145.396 102.262C144.437 101.4 143.238 100.85 141.96 100.687C141.858 99.5164 141.485 98.386 140.871 97.385C140.256 96.384 139.417 95.54 138.419 94.9199C137.374 94.2793 136.199 93.8801 134.979 93.7515C133.76 93.6229 132.528 93.7681 131.372 94.1765C130.019 93.9558 128.633 94.0604 127.328 94.4819C126.024 94.9033 124.838 95.6293 123.87 96.5999C122.455 97.9733 121.514 99.9221 121.678 101.888C121.842 103.853 123.278 105.739 125.214 106.113C124.868 106.825 124.672 107.601 124.637 108.392C124.602 109.183 124.73 109.972 125.013 110.712C125.639 112.174 127.327 113.324 128.831 113.883Z" fill="#0F9AFE"/>
<path id="Vector_41" opacity="0.2" d="M128.831 113.883C129.332 114.627 130.036 115.212 130.858 115.57C131.68 115.928 132.588 116.045 133.474 115.906C134.36 115.767 135.189 115.379 135.862 114.786C136.536 114.194 137.026 113.421 137.277 112.56C139.377 114.03 142.594 113.669 144.711 112.237C145.778 111.514 146.6 110.483 147.068 109.282C147.535 108.08 147.625 106.765 147.327 105.511C147.028 104.257 146.354 103.123 145.396 102.262C144.437 101.4 143.238 100.85 141.96 100.687C141.858 99.5164 141.485 98.386 140.871 97.385C140.256 96.384 139.417 95.54 138.419 94.9199C137.374 94.2793 136.199 93.8801 134.979 93.7515C133.76 93.6229 132.528 93.7681 131.372 94.1765C130.019 93.9558 128.633 94.0604 127.328 94.4819C126.024 94.9033 124.838 95.6293 123.87 96.5999C122.455 97.9733 121.514 99.9221 121.678 101.888C121.842 103.853 123.278 105.739 125.214 106.113C124.868 106.825 124.672 107.601 124.637 108.392C124.602 109.183 124.73 109.972 125.013 110.712C125.639 112.174 127.327 113.324 128.831 113.883Z" fill="black"/>
<path id="Vector_42" d="M173.275 78.2162C172.427 77.9237 171.514 77.8787 170.641 78.0865C169.769 78.2944 168.974 78.7464 168.349 79.3898C167.724 80.0331 167.295 80.8412 167.113 81.7193C166.931 82.5974 167.002 83.5093 167.32 84.3482C164.766 84.428 162.401 86.6582 161.57 89.0732C161.149 90.2905 161.11 91.607 161.456 92.8475C161.802 94.088 162.517 95.1937 163.507 96.0176C164.497 96.8415 165.714 97.3445 166.997 97.4597C168.28 97.5749 169.567 97.2969 170.688 96.6626C171.473 97.5369 172.451 98.216 173.545 98.6462C174.639 99.0763 175.817 99.2456 176.988 99.1406C178.209 99.0246 179.389 98.638 180.441 98.0088C181.494 97.3796 182.393 96.5238 183.074 95.5034C184.288 94.8696 185.335 93.9559 186.126 92.8378C186.918 91.7197 187.432 90.4293 187.627 89.0732C187.933 87.1286 187.517 85.0034 186.203 83.5292C184.888 82.055 182.612 81.4292 180.839 82.2692C180.686 81.4953 180.377 80.7608 179.93 80.1108C179.483 79.4608 178.907 78.909 178.24 78.4892C176.858 77.6702 174.812 77.7626 173.275 78.2162Z" fill="#0F9AFE"/>
<path id="Vector_43" opacity="0.1" d="M173.275 78.2162C172.427 77.9237 171.514 77.8787 170.641 78.0865C169.769 78.2944 168.974 78.7464 168.349 79.3898C167.724 80.0331 167.295 80.8412 167.113 81.7193C166.931 82.5974 167.002 83.5093 167.32 84.3482C164.766 84.428 162.401 86.6582 161.57 89.0732C161.149 90.2905 161.11 91.607 161.456 92.8475C161.802 94.088 162.517 95.1937 163.507 96.0176C164.497 96.8415 165.714 97.3445 166.997 97.4597C168.28 97.5749 169.567 97.2969 170.688 96.6626C171.473 97.5369 172.451 98.216 173.545 98.6462C174.639 99.0763 175.817 99.2456 176.988 99.1406C178.209 99.0246 179.389 98.638 180.441 98.0088C181.494 97.3796 182.393 96.5238 183.074 95.5034C184.288 94.8696 185.335 93.9559 186.126 92.8378C186.918 91.7197 187.432 90.4293 187.627 89.0732C187.933 87.1286 187.517 85.0034 186.203 83.5292C184.888 82.055 182.612 81.4292 180.839 82.2692C180.686 81.4953 180.377 80.7608 179.93 80.1108C179.483 79.4608 178.907 78.909 178.24 78.4892C176.858 77.6702 174.812 77.7626 173.275 78.2162Z" fill="black"/>
<path id="Vector_44" d="M157.689 174.422C157.689 174.422 149.217 168.932 150.826 168C152.435 167.067 158.079 172.557 158.079 172.557C158.079 172.557 151.838 163.426 153.38 161.595C154.921 159.764 159.075 169.037 159.075 169.037C159.075 169.037 156.252 158.436 158.235 157.277C160.217 156.118 160.952 167.899 160.952 167.899C160.952 167.899 161.729 155.131 165.383 155.299C169.037 155.467 163.703 167.899 163.703 167.899C163.703 167.899 168.857 160.511 170.684 162.607C172.511 164.703 164.867 170.587 164.867 170.587C164.867 170.587 170.583 167.903 170.965 169.894C171.347 171.885 164.665 174.006 164.665 174.006C164.665 174.006 166.811 174.623 167.311 175.346H155.895C155.895 175.346 155.711 174.804 157.689 174.422Z" fill="#0F9AFE"/>
<path id="Vector_45" opacity="0.6" d="M157.689 174.422C157.689 174.422 149.217 168.932 150.826 168C152.435 167.067 158.079 172.557 158.079 172.557C158.079 172.557 151.838 163.426 153.38 161.595C154.921 159.764 159.075 169.037 159.075 169.037C159.075 169.037 156.252 158.436 158.235 157.277C160.217 156.118 160.952 167.899 160.952 167.899C160.952 167.899 161.729 155.131 165.383 155.299C169.037 155.467 163.703 167.899 163.703 167.899C163.703 167.899 168.857 160.511 170.684 162.607C172.511 164.703 164.867 170.587 164.867 170.587C164.867 170.587 170.583 167.903 170.965 169.894C171.347 171.885 164.665 174.006 164.665 174.006C164.665 174.006 166.811 174.623 167.311 175.346H155.895C155.895 175.346 155.711 174.804 157.689 174.422Z" fill="white"/>
</g>
<g id="freepik--Stone--inject-44">
<path id="Vector_46" d="M48.1613 153.145C48.1319 152.993 45.2927 138.264 42.5207 136.303C39.8285 134.404 37.4807 137.012 37.3967 137.143L37.0817 136.87C37.1069 136.836 39.7655 133.867 42.7601 135.983C45.6749 138.037 48.4553 152.473 48.5729 153.086L48.1613 153.145Z" fill="#0F9AFE"/>
<path id="Vector_47" d="M47.107 154.358C47.107 154.258 46.057 144.131 42.7936 141.023C42.004 140.272 41.2312 139.978 40.4962 140.15C38.749 140.549 37.6696 143.375 37.6612 143.405L37.2664 143.258C37.3126 143.132 38.434 140.192 40.3996 139.738C41.2816 139.537 42.1846 139.864 43.0834 140.717C46.4434 143.934 47.485 153.897 47.527 154.317L47.107 154.358Z" fill="#0F9AFE"/>
<path id="Vector_48" d="M45.1498 137.916C45.1498 137.916 47.0482 137.534 47.4136 139.176C47.779 140.818 44.2552 146.026 44.2552 146.026C44.2552 146.026 41.0548 145.409 41.0548 141.2C41.0548 136.992 44.5198 136.979 45.1498 137.916Z" fill="#0F9AFE"/>
<path id="Vector_49" opacity="0.2" d="M45.1498 137.916C45.1498 137.916 47.0482 137.534 47.4136 139.176C47.779 140.818 44.2552 146.026 44.2552 146.026C44.2552 146.026 41.0548 145.409 41.0548 141.2C41.0548 136.992 44.5198 136.979 45.1498 137.916Z" fill="white"/>
<path id="Vector_50" d="M40.2486 141.091C40.2486 141.091 41.013 140.251 40.0092 140.045C39.0054 139.839 34.3728 140.7 35.049 145.32C35.049 145.32 40.6098 145.366 41.0046 143.502C41.3994 141.637 40.2486 141.091 40.2486 141.091Z" fill="#0F9AFE"/>
<path id="Vector_51" opacity="0.2" d="M40.2486 141.091C40.2486 141.091 41.013 140.251 40.0092 140.045C39.0054 139.839 34.3728 140.7 35.049 145.32C35.049 145.32 40.6098 145.366 41.0046 143.502C41.3994 141.637 40.2486 141.091 40.2486 141.091Z" fill="white"/>
<path id="Vector_52" d="M47.3886 133.174C47.3886 133.174 47.1744 132.334 47.922 132.552C48.6696 132.771 51.513 135.014 49.3878 137.895C49.3878 137.895 45.6078 135.921 46.0278 134.535C46.4478 133.149 47.3886 133.174 47.3886 133.174Z" fill="#0F9AFE"/>
<path id="Vector_53" opacity="0.2" d="M47.3886 133.174C47.3886 133.174 47.1744 132.334 47.922 132.552C48.6696 132.771 51.513 135.014 49.3878 137.895C49.3878 137.895 45.6078 135.921 46.0278 134.535C46.4478 133.149 47.3886 133.174 47.3886 133.174Z" fill="white"/>
<path id="Vector_54" d="M117.256 156.164L116.836 156.051C116.886 155.879 121.733 138.629 130.498 133.984L130.696 134.354C122.102 138.919 117.302 155.992 117.256 156.164Z" fill="#0F9AFE"/>
<path id="Vector_55" d="M117.335 154.216L116.953 154.04C117.041 153.859 125.403 135.581 122.522 129.776L122.896 129.591C125.87 135.572 117.684 153.46 117.335 154.216Z" fill="#0F9AFE"/>
<path id="Vector_56" d="M117.008 155.539L116.588 155.417C116.873 154.468 123.589 132.162 127.886 129.419L128.113 129.772C123.963 132.43 117.075 155.308 117.008 155.539Z" fill="#0F9AFE"/>
<path id="Vector_57" d="M124.034 130.494C124.034 130.494 125.294 130.826 125.475 130.074C125.656 129.323 121.8 125.66 117.915 127.672C117.915 127.672 118.503 131.309 120.989 132.292C123.476 133.275 124.034 130.494 124.034 130.494Z" fill="#0F9AFE"/>
<path id="Vector_58" opacity="0.2" d="M124.034 130.494C124.034 130.494 125.294 130.826 125.475 130.074C125.656 129.323 121.8 125.66 117.915 127.672C117.915 127.672 118.503 131.309 120.989 132.292C123.476 133.275 124.034 130.494 124.034 130.494Z" fill="white"/>
<path id="Vector_59" d="M126.962 129.574C126.962 129.574 125.668 129.684 125.622 128.894C125.576 128.104 130.011 125.185 133.472 127.844C133.472 127.844 132.254 131.322 129.633 131.872C127.012 132.422 126.962 129.574 126.962 129.574Z" fill="#0F9AFE"/>
<path id="Vector_60" opacity="0.2" d="M126.962 129.574C126.962 129.574 125.668 129.684 125.622 128.894C125.576 128.104 130.011 125.185 133.472 127.844C133.472 127.844 132.254 131.322 129.633 131.872C127.012 132.422 126.962 129.574 126.962 129.574Z" fill="white"/>
<path id="Vector_61" d="M131.065 133.065C131.065 133.065 130.494 132.078 131.514 132.094C132.535 132.111 136.899 133.892 135.273 138.264C135.273 138.264 129.813 137.151 129.813 135.249C129.813 133.346 131.065 133.065 131.065 133.065Z" fill="#0F9AFE"/>
<path id="Vector_62" opacity="0.2" d="M131.065 133.065C131.065 133.065 130.494 132.078 131.514 132.094C132.535 132.111 136.899 133.892 135.273 138.264C135.273 138.264 129.813 137.151 129.813 135.249C129.813 133.346 131.065 133.065 131.065 133.065Z" fill="white"/>
<path id="Vector_63" d="M127.012 135.534C127.012 135.534 127.252 134.694 127.789 135.265C128.327 135.837 129.667 139.188 126.391 140.625C126.391 140.625 124.102 137.029 125.152 136.005C126.202 134.98 127.012 135.534 127.012 135.534Z" fill="#0F9AFE"/>
<path id="Vector_64" opacity="0.2" d="M127.012 135.534C127.012 135.534 127.252 134.694 127.789 135.265C128.327 135.837 129.667 139.188 126.391 140.625C126.391 140.625 124.102 137.029 125.152 136.005C126.202 134.98 127.012 135.534 127.012 135.534Z" fill="white"/>
<path id="Vector_65" d="M38.6105 135.82C38.6105 135.82 39.0305 135.047 38.2451 135.085C37.4597 135.123 34.1585 136.584 35.5067 139.898C35.5067 139.898 39.6563 138.919 39.6101 137.462C39.5639 136.005 38.6105 135.82 38.6105 135.82Z" fill="#0F9AFE"/>
<path id="Vector_66" opacity="0.2" d="M38.6105 135.82C38.6105 135.82 39.0305 135.047 38.2451 135.085C37.4597 135.123 34.1585 136.584 35.5067 139.898C35.5067 139.898 39.6563 138.919 39.6101 137.462C39.5639 136.005 38.6105 135.82 38.6105 135.82Z" fill="white"/>
<path id="Vector_67" d="M112.426 164.443C112.426 164.443 109.654 164.334 109.381 158.744C109.108 153.153 114.001 151.662 117.743 152.347C117.743 152.347 117.193 148.365 119.629 148.512C122.065 148.659 121.897 151.318 121.897 151.318C121.897 151.318 122.737 145.673 126.05 145.669C129.364 145.665 126.05 152.347 126.05 152.347C126.05 152.347 130.649 150.717 132.35 152.347C134.051 153.977 130.25 155.883 130.25 155.883C130.25 155.883 136.21 157.316 133.72 161.877C133.72 161.877 137.873 162.356 139.037 164.397C139.037 164.397 138.705 160.277 140.2 160.554C141.695 160.831 141.359 164.443 141.359 164.443C141.359 164.443 143.854 160.474 146.013 161.877C148.172 163.28 145.018 166.64 145.018 166.64C145.018 166.64 149.171 165.153 149.835 167.123C150.499 169.092 147.508 169.832 147.508 169.832C147.508 169.832 151.83 169.092 151.83 172.751C151.83 172.751 160.138 172.163 162.133 175.447H112.594L112.426 164.443Z" fill="#0F9AFE"/>
<path id="Vector_68" opacity="0.4" d="M112.426 164.443C112.426 164.443 109.654 164.334 109.381 158.744C109.108 153.153 114.001 151.662 117.743 152.347C117.743 152.347 117.193 148.365 119.629 148.512C122.065 148.659 121.897 151.318 121.897 151.318C121.897 151.318 122.737 145.673 126.05 145.669C129.364 145.665 126.05 152.347 126.05 152.347C126.05 152.347 130.649 150.717 132.35 152.347C134.051 153.977 130.25 155.883 130.25 155.883C130.25 155.883 136.21 157.316 133.72 161.877C133.72 161.877 137.873 162.356 139.037 164.397C139.037 164.397 138.705 160.277 140.2 160.554C141.695 160.831 141.359 164.443 141.359 164.443C141.359 164.443 143.854 160.474 146.013 161.877C148.172 163.28 145.018 166.64 145.018 166.64C145.018 166.64 149.171 165.153 149.835 167.123C150.499 169.092 147.508 169.832 147.508 169.832C147.508 169.832 151.83 169.092 151.83 172.751C151.83 172.751 160.138 172.163 162.133 175.447H112.594L112.426 164.443Z" fill="white"/>
<path id="Vector_69" d="M54.6251 164.443C54.6251 164.443 56.6705 164.334 56.8721 158.744C57.0737 153.153 53.4743 151.662 50.7023 152.347C50.7023 152.347 51.1223 148.365 49.3121 148.512C47.5019 148.659 47.6321 151.318 47.6321 151.318C47.6321 151.318 47.0189 145.673 44.5661 145.669C42.1133 145.665 44.5661 152.347 44.5661 152.347C44.5661 152.347 41.1767 150.717 39.9461 152.347C38.7155 153.977 41.5043 155.883 41.5043 155.883C41.5043 155.883 37.1069 157.316 38.9465 161.877C38.9465 161.877 35.8805 162.356 35.0237 164.397C35.0237 164.397 35.2673 160.277 34.1837 160.554C33.1001 160.831 33.3437 164.443 33.3437 164.443C33.3437 164.443 31.5083 160.474 29.9123 161.877C28.3163 163.28 30.6473 166.64 30.6473 166.64C30.6473 166.64 27.5855 165.153 27.0941 167.123C26.6027 169.092 28.8119 169.832 28.8119 169.832C28.8119 169.832 25.6241 169.092 25.6241 172.751C25.6241 172.751 19.4963 172.163 18.0221 175.447H54.5621L54.6251 164.443Z" fill="#0F9AFE"/>
<path id="Vector_70" opacity="0.4" d="M54.6251 164.443C54.6251 164.443 56.6705 164.334 56.8721 158.744C57.0737 153.153 53.4743 151.662 50.7023 152.347C50.7023 152.347 51.1223 148.365 49.3121 148.512C47.5019 148.659 47.6321 151.318 47.6321 151.318C47.6321 151.318 47.0189 145.673 44.5661 145.669C42.1133 145.665 44.5661 152.347 44.5661 152.347C44.5661 152.347 41.1767 150.717 39.9461 152.347C38.7155 153.977 41.5043 155.883 41.5043 155.883C41.5043 155.883 37.1069 157.316 38.9465 161.877C38.9465 161.877 35.8805 162.356 35.0237 164.397C35.0237 164.397 35.2673 160.277 34.1837 160.554C33.1001 160.831 33.3437 164.443 33.3437 164.443C33.3437 164.443 31.5083 160.474 29.9123 161.877C28.3163 163.28 30.6473 166.64 30.6473 166.64C30.6473 166.64 27.5855 165.153 27.0941 167.123C26.6027 169.092 28.8119 169.832 28.8119 169.832C28.8119 169.832 25.6241 169.092 25.6241 172.751C25.6241 172.751 19.4963 172.163 18.0221 175.447H54.5621L54.6251 164.443Z" fill="white"/>
<path id="Vector_71" d="M36.3886 174.514C36.3886 174.514 44.8558 169.025 43.2598 168.101C41.6638 167.177 35.9938 172.654 35.9938 172.654C35.9938 172.654 42.235 163.523 40.6936 161.692C39.1522 159.861 34.9984 169.134 34.9984 169.134C34.9984 169.134 37.8208 158.533 35.8384 157.374C33.856 156.215 33.1126 168 33.1126 168C33.1126 168 32.3398 155.228 28.6816 155.4C25.0234 155.572 30.3616 168 30.3616 168C30.3616 168 25.1998 160.604 23.3686 162.704C21.5374 164.804 29.1814 170.684 29.1814 170.684C29.1814 170.684 23.4652 168 23.0998 169.999C22.7344 171.999 29.3998 174.111 29.3998 174.111C29.3998 174.111 27.2494 174.729 26.7538 175.447H38.182C38.182 175.447 38.3626 174.901 36.3886 174.514Z" fill="#0F9AFE"/>
<path id="Vector_72" opacity="0.6" d="M36.3886 174.514C36.3886 174.514 44.8558 169.025 43.2598 168.101C41.6638 167.177 35.9938 172.654 35.9938 172.654C35.9938 172.654 42.235 163.523 40.6936 161.692C39.1522 159.861 34.9984 169.134 34.9984 169.134C34.9984 169.134 37.8208 158.533 35.8384 157.374C33.856 156.215 33.1126 168 33.1126 168C33.1126 168 32.3398 155.228 28.6816 155.4C25.0234 155.572 30.3616 168 30.3616 168C30.3616 168 25.1998 160.604 23.3686 162.704C21.5374 164.804 29.1814 170.684 29.1814 170.684C29.1814 170.684 23.4652 168 23.0998 169.999C22.7344 171.999 29.3998 174.111 29.3998 174.111C29.3998 174.111 27.2494 174.729 26.7538 175.447H38.182C38.182 175.447 38.3626 174.901 36.3886 174.514Z" fill="white"/>
<path id="Vector_73" d="M40.6264 175.447C40.6264 175.447 50.3704 139.591 52.1428 138.264C53.9152 136.937 64.0246 133.195 64.0246 133.195C64.0246 133.195 88.6156 137.302 92.3116 136.895C96.0076 136.488 107.885 134.203 109.59 136.895C111.296 139.587 118.02 155.765 118.02 155.765L127.466 159.751L133.451 175.447H40.6264Z" fill="#0F9AFE"/>
<path id="Vector_74" opacity="0.6" d="M133.451 175.447H40.6307C40.6307 175.447 50.3285 139.747 52.1345 138.268C52.7651 137.856 53.4297 137.497 54.1211 137.197C57.6323 135.564 64.0163 133.203 64.0163 133.203C64.0163 133.203 88.6073 137.311 92.3033 136.903C95.9993 136.496 107.877 134.207 109.582 136.903C109.943 137.479 110.536 138.663 111.241 140.175C113.854 145.74 118.02 155.761 118.02 155.761L127.466 159.751L133.451 175.447Z" fill="white"/>
<path id="Vector_75" opacity="0.1" d="M111.25 140.167L107.583 143.796L98.028 141.54L87.2172 143.787L87.9102 147.966L83.9748 152.653L85.3734 147.966L82.32 142.821C82.32 142.821 69.8796 143.577 66.633 142.821C64.596 142.347 58.4346 139.348 54.1422 137.189C57.6534 135.555 64.0374 133.195 64.0374 133.195C64.0374 133.195 88.6284 137.302 92.3244 136.895C96.0204 136.488 107.898 134.199 109.603 136.895C109.952 137.47 110.544 138.655 111.25 140.167Z" fill="black"/>
<path id="Vector_76" opacity="0.1" d="M133.451 175.447H40.6307C40.6307 175.447 50.3285 139.747 52.1345 138.269L46.1537 166.089L49.1441 170.709L56.4941 165.132L62.1599 168.257L69.9803 166.677L70.7573 162.897L81.8369 155.61L74.8817 162.053L77.3303 169.403L87.9773 171.239H99.7373L104.58 168L102.959 161.406L100.51 157.584L112.921 157.555L107.638 160.827L109.586 166.635L115.563 169.407L122.51 165.119L125.341 173.301L133.451 175.447Z" fill="black"/>
<path id="Vector_77" d="M121.044 175.447H136.428C136.428 175.447 133.367 170.76 132.06 171.356C130.359 172.129 129.099 167.883 127.218 168.886C126.554 169.243 126.882 170.377 126.462 170.835C125.773 171.591 124.895 171.444 124.064 171.86C122.43 172.675 121.85 173.75 121.044 175.447Z" fill="#0F9AFE"/>
<path id="Vector_78" opacity="0.2" d="M121.044 175.447H136.428C136.428 175.447 133.367 170.76 132.06 171.356C130.359 172.129 129.099 167.883 127.218 168.886C126.554 169.243 126.882 170.377 126.462 170.835C125.773 171.591 124.895 171.444 124.064 171.86C122.43 172.675 121.85 173.75 121.044 175.447Z" fill="black"/>
<path id="Vector_79" d="M134.748 174.141C134.748 174.141 133.736 168.282 134.433 167.421C135.131 166.56 135.252 170.617 135.252 170.617C135.252 170.617 137.596 162.15 139.095 162.108C140.595 162.066 137.34 169.454 137.34 169.454C137.34 169.454 143.749 158.979 145.61 159.953C147.47 160.928 138.89 170.214 138.89 170.214C138.89 170.214 143.577 166.178 144.61 167.32C145.643 168.462 139.406 171.94 139.406 171.94C139.406 171.94 142.157 171.323 142.153 172.238C142.149 173.154 137.499 174.662 134.748 174.141Z" fill="#0F9AFE"/>
<path id="Vector_80" opacity="0.2" d="M134.748 174.141C134.748 174.141 133.736 168.282 134.433 167.421C135.131 166.56 135.252 170.617 135.252 170.617C135.252 170.617 137.596 162.15 139.095 162.108C140.595 162.066 137.34 169.454 137.34 169.454C137.34 169.454 143.749 158.979 145.61 159.953C147.47 160.928 138.89 170.214 138.89 170.214C138.89 170.214 143.577 166.178 144.61 167.32C145.643 168.462 139.406 171.94 139.406 171.94C139.406 171.94 142.157 171.323 142.153 172.238C142.149 173.154 137.499 174.662 134.748 174.141Z" fill="white"/>
<path id="Vector_81" d="M133.825 173.305C133.825 173.305 129.007 172.431 128.541 171.65C128.075 170.869 131.242 171.919 131.242 171.919C131.242 171.919 125.362 167.719 125.744 166.543C126.126 165.367 130.922 169.991 130.922 169.991C130.922 169.991 124.622 162.078 125.912 160.91C127.201 159.743 131.956 169 131.956 169C131.956 169 130.158 164.233 131.33 163.754C132.502 163.275 133.43 169.088 133.43 169.088C133.43 169.088 133.728 166.786 134.434 167.047C135.139 167.307 135.005 171.322 133.825 173.305Z" fill="#0F9AFE"/>
<path id="Vector_82" opacity="0.2" d="M133.825 173.305C133.825 173.305 129.007 172.431 128.541 171.65C128.075 170.869 131.242 171.919 131.242 171.919C131.242 171.919 125.362 167.719 125.744 166.543C126.126 165.367 130.922 169.991 130.922 169.991C130.922 169.991 124.622 162.078 125.912 160.91C127.201 159.743 131.956 169 131.956 169C131.956 169 130.158 164.233 131.33 163.754C132.502 163.275 133.43 169.088 133.43 169.088C133.43 169.088 133.728 166.786 134.434 167.047C135.139 167.307 135.005 171.322 133.825 173.305Z" fill="white"/>
<path id="Vector_83" d="M133.463 172.662C133.463 172.662 128.81 168.005 128.894 166.782C128.978 165.56 131.674 169.151 131.674 169.151C131.674 169.151 128.394 159.991 129.725 158.996C131.057 158 132.8 166.782 132.8 166.782C132.8 166.782 131.918 153.208 134.228 152.922C136.538 152.637 134.698 166.488 134.698 166.488C134.698 166.488 136.378 159.848 138.033 160.218C139.688 160.587 136.269 167.723 136.269 167.723C136.269 167.723 138.369 165.409 138.944 166.241C139.52 167.072 136.286 171.36 133.463 172.662Z" fill="#0F9AFE"/>
<path id="Vector_84" opacity="0.1" d="M133.463 172.662C133.463 172.662 128.81 168.005 128.894 166.782C128.978 165.56 131.674 169.151 131.674 169.151C131.674 169.151 128.394 159.991 129.725 158.996C131.057 158 132.8 166.782 132.8 166.782C132.8 166.782 131.918 153.208 134.228 152.922C136.538 152.637 134.698 166.488 134.698 166.488C134.698 166.488 136.378 159.848 138.033 160.218C139.688 160.587 136.269 167.723 136.269 167.723C136.269 167.723 138.369 165.409 138.944 166.241C139.52 167.072 136.286 171.36 133.463 172.662Z" fill="white"/>
<path id="Vector_85" d="M127.823 175.447H140.083C140.083 175.447 137.642 171.713 136.601 172.187C135.248 172.805 134.245 169.42 132.745 170.222C132.216 170.503 132.472 171.406 132.14 171.772C131.59 172.376 130.88 172.259 130.229 172.591C128.94 173.237 128.465 174.094 127.823 175.447Z" fill="#0F9AFE"/>
<path id="Vector_86" d="M51.24 175.447H35.868C35.868 175.447 38.934 170.76 40.2402 171.356C41.9202 172.129 43.1802 167.883 45.0786 168.886C45.7422 169.243 45.4188 170.377 45.8388 170.835C46.5276 171.591 47.4054 171.444 48.237 171.86C49.8708 172.675 50.4504 173.75 51.24 175.447Z" fill="#0F9AFE"/>
<path id="Vector_87" opacity="0.2" d="M51.24 175.447H35.868C35.868 175.447 38.934 170.76 40.2402 171.356C41.9202 172.129 43.1802 167.883 45.0786 168.886C45.7422 169.243 45.4188 170.377 45.8388 170.835C46.5276 171.591 47.4054 171.444 48.237 171.86C49.8708 172.675 50.4504 173.75 51.24 175.447Z" fill="black"/>
<path id="Vector_88" d="M37.5522 174.141C37.5522 174.141 38.5602 168.282 37.863 167.421C37.1658 166.56 37.023 170.617 37.023 170.617C37.023 170.617 34.7004 162.15 33.201 162.12C31.7016 162.091 34.9818 169.466 34.9818 169.466C34.9818 169.466 28.56 158.979 26.7078 159.953C24.8556 160.927 33.4278 170.214 33.4278 170.214C33.4278 170.214 28.7364 166.177 27.7032 167.32C26.67 168.462 32.9112 171.94 32.9112 171.94C32.9112 171.94 30.1602 171.322 30.1644 172.238C30.1686 173.154 34.797 174.661 37.5522 174.141Z" fill="#0F9AFE"/>
<path id="Vector_89" opacity="0.2" d="M37.5522 174.141C37.5522 174.141 38.5602 168.282 37.863 167.421C37.1658 166.56 37.023 170.617 37.023 170.617C37.023 170.617 34.7004 162.15 33.201 162.12C31.7016 162.091 34.9818 169.466 34.9818 169.466C34.9818 169.466 28.56 158.979 26.7078 159.953C24.8556 160.927 33.4278 170.214 33.4278 170.214C33.4278 170.214 28.7364 166.177 27.7032 167.32C26.67 168.462 32.9112 171.94 32.9112 171.94C32.9112 171.94 30.1602 171.322 30.1644 172.238C30.1686 173.154 34.797 174.661 37.5522 174.141Z" fill="white"/>
<path id="Vector_90" d="M42.2728 174.418C42.2728 174.418 45.9394 171.171 45.9352 170.26C45.931 169.348 43.7638 171.894 43.7638 171.894C43.7638 171.894 46.6198 165.245 45.679 164.447C44.7382 163.649 43.0372 170.1 43.0372 170.1C43.0372 170.1 44.2972 160.071 42.6172 159.739C40.9372 159.407 41.6428 169.785 41.6428 169.785C41.6428 169.785 40.7062 164.779 39.4588 164.98C38.2114 165.182 40.4206 170.629 40.4206 170.629C40.4206 170.629 38.9716 168.815 38.5012 169.407C38.0308 169.999 40.24 173.33 42.2728 174.418Z" fill="#0F9AFE"/>
<path id="Vector_91" opacity="0.2" d="M42.2728 174.418C42.2728 174.418 45.9394 171.171 45.9352 170.26C45.931 169.348 43.7638 171.894 43.7638 171.894C43.7638 171.894 46.6198 165.245 45.679 164.447C44.7382 163.649 43.0372 170.1 43.0372 170.1C43.0372 170.1 44.2972 160.071 42.6172 159.739C40.9372 159.407 41.6428 169.785 41.6428 169.785C41.6428 169.785 40.7062 164.779 39.4588 164.98C38.2114 165.182 40.4206 170.629 40.4206 170.629C40.4206 170.629 38.9716 168.815 38.5012 169.407C38.0308 169.999 40.24 173.33 42.2728 174.418Z" fill="white"/>
<path id="Vector_92" d="M44.4779 175.447H32.2139C32.2139 175.447 34.6583 171.713 35.6999 172.187C37.0523 172.805 38.0561 169.42 39.5555 170.222C40.0847 170.503 39.8243 171.406 40.1561 171.772C40.7063 172.376 41.4161 172.259 42.0713 172.591C43.3733 173.237 43.8353 174.094 44.4779 175.447Z" fill="#0F9AFE"/>
</g>
<g id="freepik--Character--inject-44">
<g id="freepik--group--inject-44">
<path id="Vector_93" d="M73.4455 94.9202C73.4455 94.9202 59.3251 92.7194 56.6455 93.8744C53.9659 95.0294 53.0629 99.1832 53.0629 99.1832C53.0629 99.1832 52.5799 100.023 54.0415 100.132C54.0415 100.132 48.0649 115.021 49.9549 117.873C51.8449 120.725 70.8793 121.867 73.4749 120.469C76.0705 119.07 82.2319 95.9828 73.4455 94.9202Z" fill="#263238"/>
<path id="Vector_94" d="M81.7614 109.124C81.7614 109.124 83.6304 113.463 84.0504 114.068C84.4704 114.672 93.7734 118.948 93.7734 118.948C94.5271 118.843 95.2918 118.843 96.0455 118.948C97.1921 119.129 98.7714 119.612 98.9142 119.788C99.057 119.964 97.188 122.682 97.188 122.682C97.188 122.682 93.471 122.913 92.988 121.443C92.988 121.443 83.6682 117.982 82.5846 117.075C81.501 116.168 78.4854 110.808 78.4854 110.808L81.7614 109.124Z" fill="#E4897B"/>
<path id="Vector_95" d="M79.0862 99.6241C80.8334 100.666 83.5676 111.88 84.1556 113.211C84.7436 114.543 91.8836 117.781 91.8836 117.781L88.7168 120.813C88.7168 120.813 81.4802 117.6 80.5814 116.701C79.6826 115.803 76.0706 106.483 76.0706 106.483L79.0862 99.6241Z" fill="#0F9AFE"/>
<path id="Vector_96" d="M78.5065 125.253C78.5065 125.253 107.957 121.023 109.511 127.483C111.153 134.316 87.5071 138.924 73.3909 139.407C59.2747 139.89 55.1923 136.786 57.4603 119.322L76.5283 119.276L78.5065 125.253Z" fill="#263238"/>
<path id="Vector_97" opacity="0.2" d="M78.5065 125.253C78.5065 125.253 107.957 121.023 109.511 127.483C111.153 134.316 87.5071 138.924 73.3909 139.407C59.2747 139.89 55.1923 136.786 57.4603 119.322L76.5283 119.276L78.5065 125.253Z" fill="black"/>
<path id="Vector_98" d="M105.105 135.265C105.09 135.276 105.071 135.282 105.052 135.282C105.033 135.282 105.015 135.276 105 135.265C104.986 135.256 104.976 135.242 104.971 135.226C104.967 135.209 104.968 135.192 104.975 135.177C105.021 135.021 105.487 133.661 105.962 133.518C106.012 133.506 106.064 133.507 106.114 133.522C106.163 133.537 106.208 133.564 106.243 133.602C106.309 133.656 106.36 133.728 106.389 133.808C106.419 133.888 106.426 133.975 106.411 134.06C106.335 134.314 106.181 134.537 105.97 134.698C105.701 134.916 105.412 135.106 105.105 135.265V135.265ZM105.222 135.005C105.663 134.811 106.02 134.467 106.23 134.034C106.243 133.977 106.238 133.917 106.217 133.862C106.197 133.807 106.16 133.759 106.113 133.724C106.1 133.707 106.082 133.695 106.061 133.689C106.041 133.683 106.02 133.684 105.999 133.69C105.96 133.707 105.923 133.729 105.89 133.757C105.595 134.13 105.369 134.552 105.222 135.005Z" fill="#0F9AFE"/>
<path id="Vector_99" d="M105.08 135.286C105.064 135.291 105.048 135.291 105.032 135.287C105.016 135.282 105.002 135.273 104.992 135.261C104.945 135.219 104.294 134.396 104.399 133.842C104.428 133.703 104.509 133.581 104.626 133.501C104.675 133.453 104.74 133.423 104.808 133.416C104.877 133.409 104.946 133.426 105.004 133.464C105.344 133.707 105.302 134.808 105.134 135.228V135.27L105.08 135.286ZM104.706 133.669C104.648 133.721 104.608 133.79 104.593 133.867C104.525 134.22 104.853 134.749 105.013 135.001C105.122 134.53 105.088 133.741 104.887 133.619C104.866 133.619 104.824 133.573 104.723 133.644L104.689 133.669H104.706Z" fill="#0F9AFE"/>
<path id="Vector_100" d="M94.9031 138.726L101.077 138.73L104.038 138.734L104.391 135.614L101.652 135.248L94.9577 134.354L94.9031 138.726Z" fill="#E4897B"/>
<path id="Vector_101" d="M103.74 135.24L102.988 138.798C102.979 138.844 102.98 138.892 102.989 138.939C102.999 138.985 103.018 139.029 103.045 139.068C103.072 139.108 103.106 139.141 103.146 139.167C103.186 139.192 103.231 139.209 103.278 139.218L105.05 139.537C105.05 139.537 107.407 140.137 108.07 139.713C110.002 138.478 111.85 130.645 111.077 130.053C110.792 129.843 110.292 130.162 110.044 130.419C109.25 131.229 107.558 133.489 106.886 134.161C106.105 134.942 104.714 134.963 104.105 134.934C104.017 134.931 103.931 134.96 103.864 135.017C103.797 135.073 103.752 135.153 103.74 135.24V135.24Z" fill="#263238"/>
<path id="Vector_102" opacity="0.2" d="M94.9031 138.726L101.077 138.73L101.652 135.248L94.9577 134.354L94.9031 138.726Z" fill="black"/>
<path id="Vector_103" d="M71.5891 125.038V125.819C71.5899 126.079 71.6907 126.329 71.8705 126.517C72.0503 126.704 72.2955 126.816 72.5551 126.827H101.279C101.546 126.819 101.801 126.71 101.992 126.524C102.184 126.338 102.3 126.086 102.316 125.819V125.038H71.5891Z" fill="#263238"/>
<path id="Vector_104" opacity="0.2" d="M71.5891 125.038V125.819C71.5899 126.079 71.6907 126.329 71.8705 126.517C72.0503 126.704 72.2955 126.816 72.5551 126.827H101.279C101.546 126.819 101.801 126.71 101.992 126.524C102.184 126.338 102.3 126.086 102.316 125.819V125.038H71.5891Z" fill="white"/>
<path id="Vector_105" opacity="0.2" d="M82.32 125.038V125.819C82.3219 126.08 82.4236 126.329 82.6041 126.517C82.7846 126.704 83.0302 126.816 83.2902 126.827H101.291C101.559 126.819 101.813 126.71 102.005 126.524C102.197 126.338 102.312 126.086 102.329 125.819V125.038H82.32Z" fill="white"/>
<path id="Vector_106" d="M83.2778 126.109H102.253C102.558 126.094 102.852 125.99 103.097 125.809C103.343 125.628 103.53 125.379 103.635 125.093L107.986 111.443C108.037 111.325 108.057 111.196 108.044 111.069C108.032 110.941 107.986 110.819 107.913 110.713C107.84 110.608 107.742 110.523 107.626 110.466C107.511 110.409 107.384 110.383 107.256 110.389H88.28C87.9725 110.411 87.6783 110.522 87.4335 110.71C87.1887 110.897 87.0041 111.152 86.9024 111.443L82.5512 125.076C82.5004 125.192 82.4805 125.32 82.4932 125.446C82.506 125.572 82.5511 125.693 82.6241 125.797C82.697 125.901 82.7955 125.984 82.91 126.039C83.0245 126.093 83.1512 126.118 83.2778 126.109V126.109Z" fill="#263238"/>
<path id="Vector_107" opacity="0.2" d="M83.2778 126.109H102.253C102.558 126.094 102.852 125.99 103.097 125.809C103.343 125.628 103.53 125.379 103.635 125.093L107.986 111.443C108.037 111.325 108.057 111.196 108.044 111.069C108.032 110.941 107.986 110.819 107.913 110.713C107.84 110.608 107.742 110.523 107.626 110.466C107.511 110.409 107.384 110.383 107.256 110.389H88.28C87.9725 110.411 87.6783 110.522 87.4335 110.71C87.1887 110.897 87.0041 111.152 86.9024 111.443L82.5512 125.076C82.5004 125.192 82.4805 125.32 82.4932 125.446C82.506 125.572 82.5511 125.693 82.6241 125.797C82.697 125.901 82.7955 125.984 82.91 126.039C83.0245 126.093 83.1512 126.118 83.2778 126.109V126.109Z" fill="white"/>
<path id="Vector_108" opacity="0.2" d="M84.0001 126.109H102.262C102.566 126.094 102.86 125.99 103.106 125.809C103.351 125.628 103.538 125.379 103.643 125.093L107.995 111.443C108.045 111.325 108.065 111.196 108.053 111.069C108.04 110.941 107.995 110.819 107.922 110.713C107.849 110.608 107.75 110.523 107.635 110.466C107.52 110.409 107.392 110.383 107.264 110.389H88.9939C88.6864 110.411 88.3922 110.522 88.1474 110.71C87.9026 110.897 87.718 111.152 87.6163 111.443L83.2651 125.076C83.2139 125.193 83.1939 125.321 83.207 125.448C83.2202 125.575 83.266 125.697 83.34 125.801C83.414 125.905 83.5137 125.988 83.6294 126.042C83.7451 126.096 83.8728 126.119 84.0001 126.109Z" fill="white"/>
<path id="Vector_109" opacity="0.2" d="M95.0965 118.86C94.8613 119.767 95.3149 120.506 96.1087 120.506C96.9025 120.506 97.7299 119.767 97.9651 118.86C98.2003 117.953 97.7467 117.214 96.9571 117.214C96.1675 117.214 95.3401 117.965 95.0965 118.86Z" fill="white"/>
<path id="Vector_110" opacity="0.2" d="M103.74 135.24L102.988 138.798C102.979 138.844 102.98 138.892 102.989 138.939C102.999 138.985 103.018 139.029 103.045 139.068C103.072 139.108 103.106 139.141 103.146 139.167C103.186 139.192 103.231 139.209 103.278 139.218L105.05 139.537C105.05 139.537 107.407 140.137 108.07 139.713C110.002 138.478 111.85 130.645 111.077 130.053C110.792 129.843 110.292 130.162 110.044 130.419C109.25 131.229 107.558 133.489 106.886 134.161C106.105 134.942 104.714 134.963 104.105 134.934C104.017 134.931 103.931 134.96 103.864 135.017C103.797 135.073 103.752 135.153 103.74 135.24V135.24Z" fill="white"/>
<path id="Vector_111" d="M63.1092 121.796L57.1536 121.871L57.267 119.935L63.1092 119.809V121.796Z" fill="black"/>
<path id="Vector_112" d="M74.8609 119.553L76.6417 119.515L77.2801 121.607L74.8609 121.64V119.553Z" fill="black"/>
<path id="Vector_113" d="M74.1005 119.57V121.649L64.0247 121.783V119.788L74.1005 119.57Z" fill="black"/>
<path id="Vector_114" d="M68.2963 121.287L68.2669 120.477C68.2553 120.268 68.3257 120.064 68.4631 119.907C68.6005 119.75 68.7939 119.653 69.0019 119.637L70.8247 119.561C70.9261 119.557 71.0273 119.574 71.1219 119.611C71.2166 119.648 71.3026 119.704 71.3749 119.775C71.5276 119.927 71.6163 120.131 71.6227 120.347L71.6521 121.153C71.6625 121.362 71.5912 121.566 71.4531 121.723C71.315 121.88 71.1212 121.977 70.9129 121.993L69.0943 122.069H69.0607C68.8574 122.061 68.6648 121.976 68.5226 121.83C68.3804 121.685 68.2994 121.491 68.2963 121.287V121.287ZM70.9003 121.653C71.021 121.641 71.1324 121.583 71.2108 121.49C71.2892 121.398 71.3285 121.278 71.3203 121.157L71.2909 120.351C71.2848 120.226 71.2324 120.107 71.1439 120.019C71.1025 119.977 71.0527 119.944 70.9977 119.922C70.9427 119.9 70.8837 119.89 70.8247 119.893L69.0019 119.969C68.8807 119.979 68.7687 120.037 68.69 120.13C68.6114 120.223 68.5725 120.343 68.5819 120.464L68.6113 121.275C68.6113 121.336 68.6234 121.396 68.6469 121.452C68.6704 121.508 68.7049 121.559 68.7483 121.601C68.7917 121.644 68.8432 121.678 68.8997 121.7C68.9562 121.723 69.0166 121.734 69.0775 121.733L70.9003 121.653Z" fill="white"/>
<path id="Vector_115" d="M68.607 121.023H69.5226C69.5779 121.022 69.6307 121 69.6699 120.96C69.709 120.921 69.7315 120.869 69.7326 120.813C69.7326 120.757 69.7104 120.704 69.6711 120.665C69.6317 120.625 69.5783 120.603 69.5226 120.603H68.607C68.5513 120.603 68.4979 120.625 68.4585 120.665C68.4191 120.704 68.397 120.757 68.397 120.813C68.398 120.869 68.4205 120.921 68.4597 120.96C68.4988 121 68.5516 121.022 68.607 121.023Z" fill="white"/>
<path id="Vector_116" d="M79.0861 99.624C79.0861 99.624 76.7887 114.152 77.7505 119.364L56.5027 119.981C56.5027 119.981 59.0227 104.975 62.3617 99.3132C62.3617 99.2964 67.9099 90.0312 79.0861 99.624Z" fill="#0F9AFE"/>
<path id="Vector_117" opacity="0.6" d="M79.0861 99.624C79.0861 99.624 76.7887 114.152 77.7505 119.364L56.5027 119.981C56.5027 119.981 59.0227 104.975 62.3617 99.3132C62.3617 99.2964 67.9099 90.0312 79.0861 99.624Z" fill="white"/>
<path id="Vector_118" d="M66.6204 96.3901C66.6204 96.3901 70.1442 99.8341 72.1812 99.2713C74.2182 98.7085 74.9826 97.6711 74.9826 97.6711C74.9826 97.6711 73.3446 96.9529 73.5252 96.5623C73.5462 96.5203 73.5966 96.4405 73.668 96.3229C74.277 95.3989 76.4358 92.4505 76.4358 92.4505L71.8158 89.8507C71.8158 89.8507 71.4378 90.7453 70.9758 91.8121C70.35 93.2317 69.5688 94.9495 69.2958 95.2687C68.817 95.8315 66.6204 96.3901 66.6204 96.3901Z" fill="#E4897B"/>
<path id="Vector_119" opacity="0.2" d="M70.9548 91.8121C71.2446 93.4501 71.9586 95.3779 73.668 96.3229C74.277 95.3989 76.4358 92.4505 76.4358 92.4505L71.8158 89.8507C71.8158 89.8507 71.421 90.7453 70.9548 91.8121Z" fill="black"/>
<path id="Vector_120" d="M70.0266 88.6202C69.7688 89.435 69.6426 90.2857 69.6528 91.1402C69.741 92.1818 68.5818 92.5304 68.4348 91.9004C68.4348 91.9004 68.4558 93.4334 69.4512 93.2024C69.4512 93.2024 69.4512 94.265 70.3416 94.2818C71.0988 93.2371 71.4914 91.9723 71.4588 90.6824C71.3202 88.6622 70.0266 88.6202 70.0266 88.6202Z" fill="#263238"/>
<path id="Vector_121" d="M78.011 83.5129C76.499 84.1387 76.751 87.6499 79.271 90.6529C80.8124 89.3257 81.5138 86.2597 81.1484 85.0501C80.5604 83.1139 79.3256 82.9711 78.011 83.5129Z" fill="#263238"/>
<path id="Vector_122" d="M80.22 92.0598C80.0842 92.4611 79.9243 92.8538 79.7412 93.2358C78.2502 96.2724 73.962 96.8646 72.0636 93.8616L72.0426 93.8322C70.7826 91.8078 71.2572 89.922 71.7822 86.6502C71.8974 85.8898 72.2047 85.1712 72.6749 84.5626C73.1451 83.9539 73.7627 83.4751 74.4694 83.1716C75.1761 82.868 75.9486 82.7497 76.7138 82.8278C77.4789 82.9059 78.2116 83.1778 78.8424 83.6178C81.3162 85.3608 81.1692 89.2668 80.22 92.0598Z" fill="#E4897B"/>
<path id="Vector_123" d="M76.3896 88.6198C76.3308 88.8844 76.4232 89.128 76.5912 89.1658C76.7592 89.2036 76.9482 89.023 77.0112 88.7458C77.0742 88.4686 76.9818 88.2376 76.8096 88.1998C76.6374 88.162 76.4652 88.3762 76.3896 88.6198Z" fill="#263238"/>
<path id="Vector_124" d="M79.38 89.3045C79.3212 89.5649 79.4136 89.8085 79.5858 89.8463C79.758 89.8841 79.9428 89.7077 80.0058 89.4263C80.0688 89.1449 79.9722 88.9181 79.8 88.8803C79.6278 88.8425 79.4304 89.0399 79.38 89.3045Z" fill="#263238"/>
<path id="Vector_125" d="M78.3679 89.2081C78.5027 90.0784 78.7557 90.9262 79.1197 91.7281C78.9116 91.816 78.6867 91.857 78.461 91.8483C78.2352 91.8395 78.0142 91.7813 77.8135 91.6777L78.3679 89.2081Z" fill="#DE5753"/>
<path id="Vector_126" d="M75.785 87.507C75.7507 87.5026 75.7185 87.488 75.6926 87.465C75.6633 87.4345 75.647 87.3939 75.647 87.3516C75.647 87.3093 75.6633 87.2687 75.6926 87.2382C75.88 87.071 76.1051 86.9517 76.3486 86.8902C76.5921 86.8288 76.8469 86.8271 77.0912 86.8854C77.1105 86.8903 77.1287 86.899 77.1447 86.9109C77.1607 86.9229 77.1741 86.9379 77.1843 86.9551C77.1944 86.9722 77.2011 86.9913 77.2038 87.011C77.2066 87.0308 77.2054 87.0509 77.2004 87.0702V87.0702C77.1877 87.1102 77.1602 87.1439 77.1235 87.1642C77.0867 87.1845 77.0436 87.19 77.003 87.1794V87.1794C76.8098 87.1359 76.6089 87.1396 76.4174 87.19C76.2259 87.2404 76.0493 87.3362 75.9026 87.4692C75.8865 87.483 75.8678 87.4935 75.8476 87.4999C75.8274 87.5064 75.8061 87.5088 75.785 87.507V87.507Z" fill="#263238"/>
<path id="Vector_127" d="M80.9551 88.6199C80.9261 88.6117 80.8996 88.5962 80.8783 88.5748C80.857 88.5535 80.8415 88.5271 80.8333 88.4981C80.7932 88.3043 80.708 88.1228 80.5847 87.9681C80.4614 87.8134 80.3034 87.6899 80.1235 87.6077C80.0842 87.5934 80.052 87.5643 80.034 87.5266C80.0159 87.4889 80.0134 87.4456 80.0269 87.4061C80.0411 87.3668 80.0702 87.3346 80.1079 87.3166C80.1456 87.2985 80.1889 87.296 80.2285 87.3095C80.4588 87.4091 80.6617 87.5626 80.8203 87.757C80.9789 87.9514 81.0885 88.1811 81.1399 88.4267C81.1449 88.4465 81.1459 88.4672 81.143 88.4874C81.14 88.5077 81.133 88.5272 81.1225 88.5447C81.1119 88.5623 81.098 88.5776 81.0816 88.5898C81.0651 88.602 81.0464 88.6108 81.0265 88.6157V88.6157C81.0032 88.6219 80.9789 88.6234 80.9551 88.6199V88.6199Z" fill="#263238"/>
<path id="Vector_128" d="M77.1921 93.2902C76.7464 93.2464 76.3218 93.0795 75.9657 92.808C75.6096 92.5364 75.3362 92.1711 75.1761 91.753C75.1682 91.7235 75.1722 91.6921 75.1871 91.6654C75.202 91.6388 75.2266 91.6189 75.2559 91.6102C75.2859 91.6022 75.3179 91.606 75.3452 91.6208C75.3726 91.6357 75.3932 91.6604 75.4029 91.69C75.4029 91.7362 75.7473 92.803 77.2299 93.0592C77.2599 93.0653 77.2866 93.0825 77.3045 93.1074C77.3224 93.1324 77.3302 93.1631 77.3265 93.1936C77.3213 93.2241 77.3043 93.2514 77.2791 93.2695C77.254 93.2876 77.2227 93.295 77.1921 93.2902V93.2902Z" fill="#263238"/>
<path id="Vector_129" d="M80.8542 86.1294C80.8542 86.1294 81.8286 85.3818 81.7908 84.5082C81.7573 83.9564 81.582 83.4225 81.2818 82.9582C80.9816 82.494 80.5667 82.115 80.0772 81.858C79.1485 81.3203 78.0969 81.031 77.0238 81.018C73.3026 80.7996 71.2782 81.9168 70.6398 83.9034C70.245 84.609 70.2534 85.9194 70.6062 87.1458C70.6082 87.1527 70.6082 87.16 70.6062 87.1668C70.7969 87.8667 71.1269 88.521 71.5764 89.0904C73.8444 87.1248 74.6886 85.7304 74.3316 84.8064C74.4072 84.7854 75.5328 83.7774 76.0326 83.7522C76.755 83.7144 78.0864 84.399 79.1658 85.0416C79.758 85.3902 80.367 84.8316 80.367 84.8316L80.8542 86.1294Z" fill="#263238"/>
<path id="Vector_130" d="M69.657 88.9014C69.6803 89.3136 69.7847 89.7172 69.9641 90.0891C70.1436 90.4609 70.3946 90.7938 70.7028 91.0686C71.5428 91.791 72.4248 91.161 72.5886 90.132C72.7398 89.2038 72.4878 87.7044 71.463 87.3768C70.4382 87.0492 69.5982 87.8808 69.657 88.9014Z" fill="#E4897B"/>
<path id="Vector_131" d="M69.6528 91.1106C69.6528 91.1106 71.0304 85.7556 74.4366 83.7606C77.8428 81.7656 81.375 83.16 81.375 83.16C81.3382 82.623 81.261 82.0894 81.144 81.564C81.0432 81.396 79.3548 80.8164 79.3548 80.8164C79.3548 80.8164 78.393 79.401 77.0574 78.9474C75.7218 78.4938 71.7318 78.3636 70.3374 79.527C68.943 80.6904 68.0232 83.0592 68.6112 83.1012C69.1992 83.1432 69.6486 83.1432 69.6486 83.1432C69.6486 83.1432 68.5482 86.9442 69.0186 87.5154C69.0228 87.5112 68.208 90.1572 69.6528 91.1106Z" fill="#0F9AFE"/>
<path id="Vector_132" d="M76.4862 140.171C76.4972 140.156 76.5119 140.144 76.5289 140.137C76.5458 140.129 76.5645 140.127 76.5828 140.129C76.5992 140.131 76.6142 140.139 76.625 140.151C76.6358 140.164 76.6418 140.179 76.6416 140.196C76.6752 140.356 76.8936 141.775 76.5408 142.124C76.5022 142.157 76.4557 142.18 76.4057 142.19C76.3557 142.201 76.3039 142.198 76.2552 142.183C76.1712 142.165 76.0933 142.126 76.0298 142.068C75.9663 142.011 75.9194 141.937 75.894 141.855C75.8434 141.595 75.8757 141.327 75.9864 141.086C76.1213 140.765 76.2887 140.458 76.4862 140.171V140.171ZM76.4862 140.461C76.1931 140.839 76.0442 141.31 76.0662 141.788C76.0819 141.844 76.1137 141.895 76.1577 141.934C76.2017 141.973 76.256 141.998 76.314 142.006C76.3328 142.015 76.3537 142.017 76.374 142.013C76.3943 142.01 76.4129 142 76.4274 141.985C76.4575 141.954 76.4804 141.917 76.4946 141.876C76.5821 141.408 76.5835 140.929 76.4988 140.461H76.4862Z" fill="#0F9AFE"/>
<path id="Vector_133" d="M85.8858 133.22L80.031 135.164L77.217 136.101L77.868 139.171L80.5854 138.655L87.2172 137.386L85.8858 133.22Z" fill="#E4897B"/>
<path id="Vector_134" d="M78.6282 139.331L78.2082 135.719C78.2032 135.67 78.1881 135.622 78.1639 135.579C78.1397 135.536 78.1069 135.498 78.0675 135.468C78.0281 135.438 77.983 135.417 77.935 135.405C77.8869 135.393 77.837 135.391 77.7882 135.4L76.02 135.66C76.02 135.66 73.5966 135.837 73.101 136.446C71.6562 138.231 72.366 146.248 73.2984 146.551C73.6386 146.66 74.0082 146.198 74.1636 145.879C74.6592 144.858 75.5538 142.179 75.9738 141.33C76.4694 140.343 77.7798 139.881 78.3678 139.717C78.4503 139.695 78.522 139.643 78.5698 139.573C78.6176 139.502 78.6383 139.416 78.6282 139.331Z" fill="#263238"/>
<path id="Vector_135" d="M76.4987 140.146C76.512 140.136 76.5282 140.13 76.5449 140.13C76.5616 140.13 76.5779 140.136 76.5911 140.146C76.6457 140.146 77.6075 140.566 77.7713 141.124C77.7945 141.193 77.8028 141.266 77.7956 141.339C77.7883 141.411 77.7658 141.481 77.7293 141.544C77.7078 141.609 77.6649 141.665 77.6077 141.702C77.5505 141.74 77.4824 141.756 77.4143 141.75C76.9943 141.696 76.5239 140.7 76.4777 140.255V140.209C76.4762 140.197 76.4773 140.186 76.4809 140.175C76.4846 140.164 76.4907 140.154 76.4987 140.146ZM77.5823 141.406C77.6076 141.332 77.6076 141.252 77.5823 141.179C77.4815 140.835 76.9439 140.52 76.6709 140.381C76.7927 140.847 77.1833 141.515 77.4269 141.544C77.4521 141.544 77.5025 141.544 77.5571 141.444L77.5781 141.406H77.5823Z" fill="#0F9AFE"/>
<path id="Vector_136" opacity="0.2" d="M85.8858 133.22L80.031 135.164L80.5854 138.655L87.2172 137.386L85.8858 133.22Z" fill="black"/>
<path id="Vector_137" d="M81.6019 139.196L83.2736 139.352L82.2739 133.577L80.3546 134.585L81.6019 139.196Z" fill="#0F9AFE"/>
<path id="Vector_138" opacity="0.6" d="M81.6019 139.196L83.2736 139.352L82.2739 133.577L80.3546 134.585L81.6019 139.196Z" fill="white"/>
<path id="Vector_139" opacity="0.2" d="M78.6282 139.331L78.2082 135.719C78.2032 135.67 78.1881 135.622 78.1639 135.579C78.1397 135.536 78.1069 135.498 78.0675 135.468C78.0281 135.438 77.983 135.417 77.935 135.405C77.8869 135.393 77.837 135.391 77.7882 135.4L76.02 135.66C76.02 135.66 73.5966 135.837 73.101 136.446C71.6562 138.231 72.366 146.248 73.2984 146.551C73.6386 146.66 74.0082 146.198 74.1636 145.879C74.6592 144.858 75.5538 142.179 75.9738 141.33C76.4694 140.343 77.7798 139.881 78.3678 139.717C78.4503 139.695 78.522 139.643 78.5698 139.573C78.6176 139.502 78.6383 139.416 78.6282 139.331Z" fill="white"/>
<path id="Vector_140" d="M100.515 134.795C100.515 134.795 73.1138 124.152 64.7264 125.929C56.339 127.705 56.2928 132.098 60.5264 136.193C64.76 140.288 71.1356 138.713 71.1356 138.713C71.1356 138.713 66.1418 135.723 66.4904 133.875C66.839 132.027 70.0142 136.252 70.0142 136.252C70.0142 136.252 86.5706 140.301 100.254 139.234L100.515 134.795Z" fill="#263238"/>
<path id="Vector_141" d="M100.846 134.35L99.3091 133.644L98.4229 139.411L100.565 139.062L100.846 134.35Z" fill="#0F9AFE"/>
<path id="Vector_142" opacity="0.6" d="M100.846 134.35L99.3091 133.644L98.4229 139.411L100.565 139.062L100.846 134.35Z" fill="white"/>
<path id="Vector_143" d="M64.8818 95.2726C64.8818 95.2726 68.5904 105.353 68.3972 107.616C68.204 109.88 60.5642 126.84 60.5642 126.84L54.2642 129.36C54.2642 129.36 55.562 104.45 64.8818 95.2726Z" fill="#0F9AFE"/>
<path id="Vector_144" opacity="0.2" d="M64.8818 95.2726C64.8818 95.2726 68.5904 105.353 68.3972 107.616C68.204 109.88 60.5642 126.84 60.5642 126.84L54.2642 129.36C54.2642 129.36 55.562 104.45 64.8818 95.2726Z" fill="black"/>
<path id="Vector_145" d="M78.2671 124.534C78.2671 124.534 76.2846 119.834 75.6504 117.23C75.0162 114.626 77.2338 101.249 76.041 96.7594L79.086 99.6238L77.7966 116.34L78.2671 124.534Z" fill="#0F9AFE"/>
<path id="Vector_146" opacity="0.2" d="M78.2671 124.534C78.2671 124.534 76.2846 119.834 75.6504 117.23C75.0162 114.626 77.2338 101.249 76.041 96.7594L79.086 99.6238L77.7966 116.34L78.2671 124.534Z" fill="black"/>
<path id="Vector_147" d="M55.7844 117.23C55.7844 117.23 68.9262 119.75 66.8472 95.743L64.7094 95.5582C64.7094 95.5582 66.0114 104.681 63.6132 110.649C61.215 116.617 55.5618 116.34 55.5618 116.34L55.7844 117.23Z" fill="#263238"/>
<path id="Vector_148" d="M68.3215 106.562L63.9115 96.3228L62.5801 98.0826C62.5801 98.0826 62.3449 95.6004 63.1177 94.878C63.8905 94.1556 66.0577 95.0586 66.8977 95.2728C67.7377 95.487 68.3215 106.562 68.3215 106.562Z" fill="#0F9AFE"/>
<path id="Vector_149" d="M75.2725 96.9191C75.2725 96.9191 76.9735 101.959 76.6963 109.847C76.4191 117.734 77.8387 117.079 77.8387 117.079L78.0403 116.336C78.0403 116.336 77.2465 116.243 77.3095 113.585C77.3725 110.926 77.7295 100.195 76.6963 97.3769L75.2725 96.9191Z" fill="#263238"/>
<path id="Vector_150" d="M76.163 106.26C76.163 106.26 76.583 98.6998 74.4578 96.4864C74.4578 96.4864 76.0496 95.89 76.6964 96.4864C77.3432 97.0828 77.5028 102.841 76.2344 106.566" fill="#0F9AFE"/>
<path id="Vector_151" d="M65.4906 109.351C65.4906 109.351 67.4142 113.816 67.8468 114.437C68.2794 115.059 77.8512 119.477 77.8512 119.477C78.6273 119.37 79.4145 119.37 80.1906 119.477C81.3708 119.662 82.9962 120.158 83.1306 120.347C83.265 120.536 81.354 123.325 81.354 123.325C81.354 123.325 77.5278 123.56 77.0532 122.065C77.0532 122.065 67.4604 118.503 66.3474 117.571C65.2344 116.638 62.16 111.086 62.16 111.086L65.4906 109.351Z" fill="#E4897B"/>
<path id="Vector_152" d="M63.1092 99.3341C65.1588 99.3341 68.0358 111.846 68.5692 113.543C69.1026 115.24 77.6034 118.86 77.6034 118.86L74.9028 122.056C74.9028 122.056 65.7132 118.738 64.6338 117.214C63.5544 115.689 60.2826 107.008 60.1314 105C59.9802 102.992 61.74 99.3299 63.1092 99.3341Z" fill="#0F9AFE"/>
</g>
</g>
</g>
</g>
<defs>
<clipPath id="clip0_41733_754">
<rect width="210" height="183" fill="white"/>
</clipPath>
</defs>
</svg>
